<svg width="28" height="24" viewBox="0 0 28 24" fill="none" xmlns="http://www.w3.org/2000/svg">
<path d="M25.0075 16.5746V16.3499C24.4687 16.6293 24.8129 16.5746 17.1902 16.5746C17.1902 15.3173 17.1952 15.3823 17.1902 15.3173C17.1054 15.3124 17.0306 15.3124 16.7212 15.3124C16.7212 16.2053 16.7163 15.6516 16.7163 16.5746H14.7408C14.7408 15.9709 14.7458 15.8113 14.7458 15.1178C14.2469 15.4171 13.6084 15.4371 13.0346 15.4271C13.0346 16.1603 13.0296 15.8412 13.0296 16.5746H10.5903C10.3358 16.29 10.4555 16.4197 9.822 15.7064C9.66225 15.881 9.18337 16.3999 9.01875 16.5746H4.92806V11.9699H9.07363C9.32306 12.2493 9.21331 12.1246 9.84681 12.8279C10.0065 12.6534 10.4554 12.1594 10.6301 11.9699H13.5236C14.0124 11.9699 14.4216 12.0648 14.7358 12.2493V11.9699C17.4447 11.9699 17.9436 11.9 18.5123 12.2243V11.9699H22.4135V12.2293C22.9822 11.885 23.3913 11.9699 25.6511 11.9699V12.2193C26.165 11.9249 26.4792 11.9599 28.3601 11.9699V3.21982C28.3601 1.89782 27.2875 0.825195 25.9654 0.825195H2.01956C0.697563 0.825195 -0.375 1.89782 -0.375 3.21982V8.69738C0.094 7.60488 0.607812 6.40263 0.777375 6.00857H2.75794C2.9725 6.51238 2.83769 6.19307 3.20694 7.06113V6.00857H5.50175C5.64638 6.31776 6.0555 7.20576 6.19519 7.50513C6.4845 6.82663 6.69913 6.31276 6.82381 6.00857H11.9621C11.9621 6.00351 12.5359 6.00857 12.5409 6.00857C14.7209 6.01845 15.2148 5.96857 15.7535 6.27288V6.00857H17.7441V6.47245C18.1232 6.16813 18.6371 6.00857 19.2756 6.00857H20.6524C20.6524 6.03351 20.7474 6.02351 20.7673 6.02351H22.3835C22.5931 6.51232 22.5133 6.32276 22.8224 7.05113V6.02351H24.9826C25.2271 6.42257 24.9328 5.93369 25.5413 6.94138V6.02351H27.5318V10.6131H25.4566C25.1871 10.1641 25.3867 10.5033 24.7981 9.52063V10.6131H22.1639C21.8447 9.87476 22.1589 10.5981 21.8347 9.84982H20.8867C20.6773 10.3486 20.7771 10.1093 20.5676 10.6131H19.2305C18.6171 10.6131 18.1181 10.4634 17.7489 10.1691V10.6131H14.4315C14.4165 9.91969 14.4264 9.37588 14.4264 9.37588C14.3366 9.36095 14.2568 9.36594 13.9376 9.36594V10.6181H7.17794V10.0493C7.05319 10.3287 7.04325 10.3437 6.9235 10.6181H5.45181C5.25225 10.1741 5.30719 10.2988 5.19744 10.0493V10.6181H2.55837C2.34881 10.1142 2.44863 10.3537 2.23913 9.85482H1.28125C1.07175 10.3536 1.17156 10.1142 0.962 10.6181H-0.365062V20.7799C-0.365062 22.1021 0.707562 23.1746 2.02956 23.1746H25.9803C27.3022 23.1746 28.3749 22.1021 28.3749 20.7799V16.2703C27.7413 16.6843 26.7435 16.5746 25.0075 16.5746Z" fill="#0353A5"/>
<path d="M17.1692 6.67188H16.3262V10.1289H17.1692V6.67188Z" fill="#016FD0"/>
<path d="M15.8526 7.59987C15.8526 6.78174 15.1492 6.68205 14.4857 6.68205L12.5352 6.66699V10.1241H13.3533V8.87199H14.2513C15.1692 8.87199 14.9746 9.38587 14.9896 10.1241H15.8178V9.45062C15.8178 8.99174 15.7429 8.69737 15.269 8.5328C15.6382 8.38312 15.8576 7.99899 15.8526 7.59987ZM14.386 8.16362H13.3533V7.4003H14.401C14.6555 7.4003 14.9347 7.45024 14.9347 7.76943C14.9347 8.09874 14.6702 8.16362 14.386 8.16362Z" fill="#016FD0"/>
<path d="M11.9679 7.40013V6.67188H9.19922V10.1289H11.9679V9.41556H10.0273V8.72719H11.913V8.02375H10.0273V7.40013H11.9679Z" fill="#016FD0"/>
<path d="M8.58548 10.1289V6.67188H7.20855L6.2258 9.0165L5.14317 6.67188H3.7913V9.94931L2.38948 6.67188H1.16723L-0.314453 10.1289H0.578609L0.897797 9.36569H2.61892L2.93817 10.1289H4.62436V7.42506L5.82161 10.1289H6.54998L7.74723 7.42506V10.1289H8.58548ZM1.19211 8.64731L1.75086 7.27044L2.32461 8.64731H1.19211Z" fill="#016FD0"/>
<path d="M13.5531 12.6284H10.9241L9.87638 13.7657L8.85369 12.6284H5.53631L5.53125 16.0855H8.79394L9.85644 14.9382L10.8741 16.0855H12.4805L12.4854 14.9232C13.4283 14.9232 14.9449 15.1526 14.9449 13.7609C14.9449 12.8977 14.3313 12.6284 13.5531 12.6284ZM8.37481 15.3572H6.34937V14.6687H8.16031V13.9654H6.34937V13.3417H8.42969L9.32269 14.3495L8.37481 15.3572ZM11.6573 15.7663L10.3952 14.3645L11.6573 12.9975V15.7663ZM13.5431 14.2199H12.4854V13.3417H13.558C13.8374 13.3417 14.0669 13.4565 14.0669 13.7609C14.0669 14.08 13.8374 14.2199 13.5431 14.2199Z" fill="#016FD0"/>
<path d="M17.5742 8.42805C17.5742 9.53549 18.083 10.1242 19.2204 10.1242H20.1784L20.4975 9.36093H22.2087L22.5378 10.1242H24.2192V7.53505L25.7755 10.1242H26.953V6.68212H26.1098V9.08168L24.658 6.68212H23.3959V9.94462L22.0042 6.68212H20.7669L19.5945 9.40087H19.2254C18.5618 9.40087 18.4222 8.99674 18.4222 8.40812C18.4222 7.2208 19.2054 7.41037 20.0734 7.4253V6.66699H19.2702C18.098 6.66699 17.5742 7.26562 17.5742 8.42805ZM21.3707 7.27062L21.9293 8.64749H20.7919L21.3707 7.27062Z" fill="#016FD0"/>
<path d="M23.9742 15.3424H22.368L22.363 16.0807H23.9694C24.7077 16.0807 25.2764 15.8013 25.2764 14.9833C25.2764 13.327 23.1363 14.4245 23.1363 13.6711C23.1363 13.3918 23.3807 13.352 23.5952 13.352H25.1118V12.6235H23.4556C22.817 12.6235 22.2832 12.9529 22.2832 13.6562C22.2832 15.3025 24.4133 14.2798 24.4133 15.0232C24.4084 15.2926 24.1788 15.3424 23.9742 15.3424Z" fill="#016FD0"/>
<path d="M18.6622 13.5614C18.6622 12.7432 17.9588 12.6284 17.3103 12.6284H15.3447L15.3398 16.0855H16.168L16.1728 14.8235H17.0509C17.5997 14.8235 17.7892 14.9233 17.7892 15.5119L17.7842 16.0855H18.6123L18.6174 15.3972C18.6174 14.9532 18.5275 14.6439 18.0685 14.4792C18.4527 14.3245 18.6573 13.9405 18.6622 13.5614ZM17.2055 14.12H16.1728V13.3418H17.2205C17.475 13.3418 17.7543 13.3918 17.7543 13.711C17.7543 14.0552 17.485 14.12 17.2055 14.12Z" fill="#016FD0"/>
<path d="M21.8701 13.3417V12.6284H19.1163L19.1113 16.0855H21.8651L21.8701 15.3721L19.9444 15.3572V14.6687H21.8351V13.9654H19.9495V13.3417H21.8701Z" fill="#016FD0"/>
<path d="M26.8192 13.3567H28.3208V12.6284H26.6794C26.0409 12.6284 25.4922 12.9577 25.4922 13.6611C25.4922 15.3074 27.6223 14.2997 27.6223 15.028C27.6223 15.2824 27.4078 15.3472 27.2033 15.3472H25.6069L25.6019 16.0855H27.1983C27.6174 16.0855 28.0764 15.9956 28.3208 15.6415V14.3544C27.7969 13.666 26.3602 14.2895 26.3602 13.681C26.3602 13.3917 26.5896 13.3567 26.8192 13.3567Z" fill="#016FD0"/>
</svg>
