<svg width="25" height="25" viewBox="0 0 25 25" fill="none" xmlns="http://www.w3.org/2000/svg">
<path fill-rule="evenodd" clip-rule="evenodd" d="M19.6001 19.66C20.1901 18.76 20.4101 18.3 20.8601 17.29C17.5401 16.03 17.0101 11.3 20.2901 9.48999C19.2901 8.22999 17.8801 7.5 16.5501 7.5C15.5901 7.5 14.9301 7.75001 14.3401 7.98001C13.8401 8.17001 13.3901 8.34 12.8301 8.34C12.2301 8.34 11.7001 8.15001 11.1401 7.95001C10.5301 7.73001 9.89006 7.5 9.09006 7.5C7.60006 7.5 6.01007 8.41 5.00007 9.97C3.58007 12.17 3.83007 16.29 6.12007 19.81C6.94007 21.07 8.04007 22.48 9.47007 22.5C10.0701 22.51 10.4601 22.33 10.8901 22.14C11.3801 21.92 11.9101 21.68 12.8401 21.68C13.7701 21.67 14.2901 21.92 14.7801 22.14C15.2001 22.33 15.5801 22.51 16.1701 22.5C17.6201 22.48 18.7801 20.92 19.6001 19.66Z" fill="black"/>
<path fill-rule="evenodd" clip-rule="evenodd" d="M16.3404 2.5C16.5004 3.6 16.0504 4.69001 15.4604 5.45001C14.8304 6.27001 13.7304 6.91 12.6704 6.87C12.4804 5.81 12.9704 4.71999 13.5704 3.98999C14.2404 3.18999 15.3704 2.57 16.3404 2.5Z" fill="black"/>
</svg>
