<svg width="202" height="198" viewBox="0 0 202 198" fill="none" xmlns="http://www.w3.org/2000/svg">
<mask id="mask0_298_5095" style="mask-type:luminance" maskUnits="userSpaceOnUse" x="192" y="118" width="9" height="9">
<path d="M200.42 123.018L197.51 126.182L192.359 121.292L195.27 118.129L200.42 123.018Z" fill="white"/>
</mask>
<g mask="url(#mask0_298_5095)">
<mask id="mask1_298_5095" style="mask-type:luminance" maskUnits="userSpaceOnUse" x="0" y="47" width="202" height="123">
<path d="M181.837 169.473L0.0656118 100.363L20.0001 47.1382L201.771 116.249L181.837 169.473Z" fill="white"/>
</mask>
<g mask="url(#mask1_298_5095)">
<mask id="mask2_298_5095" style="mask-type:luminance" maskUnits="userSpaceOnUse" x="0" y="47" width="202" height="123">
<path d="M201.806 116.167L20.0348 47.0565L0.10028 100.281L181.871 169.392L201.806 116.167Z" fill="white"/>
</mask>
<g mask="url(#mask2_298_5095)">
<mask id="mask3_298_5095" style="mask-type:luminance" maskUnits="userSpaceOnUse" x="0" y="47" width="202" height="123">
<path d="M201.805 116.169L20.0343 47.0581L0.0997914 100.283L181.871 169.393L201.805 116.169Z" fill="white"/>
</mask>
<g mask="url(#mask3_298_5095)">
<path d="M196.963 125.069C197.214 125.165 197.468 125.181 197.727 125.115C197.989 125.05 198.208 124.915 198.387 124.712C198.566 124.51 198.674 124.272 198.71 124.003C198.745 123.733 198.701 123.478 198.58 123.237C197.968 122.008 197.268 120.832 196.484 119.709C196.386 119.562 196.265 119.439 196.12 119.343C195.974 119.245 195.815 119.182 195.644 119.151C195.472 119.119 195.3 119.123 195.129 119.161C194.958 119.202 194.801 119.272 194.658 119.375C194.517 119.48 194.399 119.608 194.306 119.758C194.214 119.91 194.153 120.074 194.127 120.25C194.099 120.426 194.108 120.599 194.149 120.772C194.192 120.944 194.266 121.102 194.371 121.242C195.081 122.259 195.714 123.325 196.268 124.437C196.419 124.74 196.651 124.95 196.963 125.069Z" fill="#494949"/>
</g>
</g>
</g>
</g>
<mask id="mask4_298_5095" style="mask-type:luminance" maskUnits="userSpaceOnUse" x="24" y="16" width="169" height="169">
<path d="M192.51 114.888L128.16 184.837L24.8002 86.7182L89.1504 16.7688L192.51 114.888Z" fill="white"/>
</mask>
<g mask="url(#mask4_298_5095)">
<mask id="mask5_298_5095" style="mask-type:luminance" maskUnits="userSpaceOnUse" x="0" y="47" width="202" height="123">
<path d="M181.843 169.468L0.0719594 100.358L20.0065 47.1329L201.777 116.243L181.843 169.468Z" fill="white"/>
</mask>
<g mask="url(#mask5_298_5095)">
<mask id="mask6_298_5095" style="mask-type:luminance" maskUnits="userSpaceOnUse" x="0" y="47" width="202" height="123">
<path d="M201.804 116.162L20.0333 47.0514L0.0988149 100.276L181.87 169.387L201.804 116.162Z" fill="white"/>
</mask>
<g mask="url(#mask6_298_5095)">
<mask id="mask7_298_5095" style="mask-type:luminance" maskUnits="userSpaceOnUse" x="0" y="47" width="202" height="123">
<path d="M201.807 116.166L20.0358 47.0558L0.101256 100.28L181.872 169.391L201.807 116.166Z" fill="white"/>
</mask>
<g mask="url(#mask7_298_5095)">
<path d="M71.2643 127.255C71.5188 127.35 71.7733 127.447 72.0264 127.544C72.1885 127.602 72.3561 127.625 72.5266 127.614C72.6984 127.605 72.8614 127.562 73.0169 127.486C73.1711 127.411 73.3062 127.308 73.4236 127.177C73.5384 127.047 73.624 126.899 73.6818 126.736C73.7394 126.569 73.7644 126.4 73.7554 126.227C73.7476 126.052 73.7062 125.887 73.6325 125.729C73.5587 125.572 73.4582 125.435 73.3309 125.32C73.2023 125.203 73.0577 125.117 72.8969 125.059C71.5306 124.575 70.2035 124.005 68.9105 123.351C68.0116 122.889 67.145 122.372 66.3106 121.799C66.1697 121.709 66.0154 121.647 65.8489 121.618C65.6838 121.589 65.5183 121.592 65.3538 121.629C65.188 121.664 65.0362 121.731 64.8956 121.826C64.7563 121.923 64.6399 122.041 64.545 122.183C64.4501 122.327 64.3856 122.482 64.3501 122.649C64.3146 122.815 64.3131 122.984 64.3415 123.152C64.3713 123.319 64.4306 123.476 64.521 123.621C64.61 123.765 64.7218 123.886 64.859 123.986C65.7851 124.618 66.7471 125.186 67.7451 125.694C68.8913 126.275 70.0644 126.795 71.2643 127.255ZM79.4561 129.344C79.5458 129.378 79.6351 129.401 79.7294 129.413C82.3399 129.782 84.965 129.936 87.6019 129.875C87.7711 129.866 87.9329 129.826 88.0846 129.754C88.2389 129.682 88.3729 129.583 88.4892 129.459C88.6054 129.333 88.6938 129.19 88.7555 129.03C88.8147 128.871 88.8463 128.705 88.8425 128.534C88.8414 128.363 88.8066 128.199 88.7406 128.041C88.676 127.885 88.5833 127.745 88.465 127.625C88.3454 127.504 88.2084 127.413 88.0526 127.347C87.8981 127.28 87.7368 127.248 87.5673 127.247C85.0685 127.308 82.5807 127.166 80.1064 126.818C79.9492 126.795 79.7904 126.801 79.635 126.836C79.4783 126.873 79.3328 126.935 79.1985 127.024C79.0643 127.115 78.9516 127.227 78.8577 127.359C78.7626 127.492 78.6965 127.638 78.6555 127.794C78.6158 127.952 78.6036 128.113 78.6214 128.274C78.6392 128.435 78.6842 128.588 78.7575 128.732C78.8309 128.877 78.9285 129.003 79.049 129.109C79.1682 129.217 79.3023 129.298 79.4525 129.354L79.4561 129.344ZM59.4249 118.95C59.5593 119.001 59.6983 119.027 59.8419 119.033C59.9854 119.038 60.1256 119.016 60.2638 118.973C60.4008 118.93 60.5279 118.866 60.644 118.778C60.7601 118.693 60.86 118.589 60.9425 118.47C61.0251 118.35 61.0864 118.22 61.1279 118.08C61.1681 117.941 61.1861 117.798 61.1804 117.651C61.1735 117.506 61.1446 117.365 61.091 117.229C61.0388 117.095 60.9661 116.972 60.8742 116.862C59.2757 114.961 57.9341 112.887 56.847 110.644C56.7695 110.491 56.6653 110.361 56.5368 110.249C56.4071 110.139 56.2639 110.057 56.1019 110.003C55.9413 109.951 55.7765 109.931 55.6074 109.946C55.4383 109.957 55.278 110.003 55.1264 110.081C54.9748 110.158 54.8423 110.261 54.7288 110.39C54.6166 110.52 54.5323 110.666 54.4758 110.829C54.4193 110.991 54.3956 111.159 54.4045 111.33C54.4122 111.501 54.4523 111.666 54.5247 111.822C55.7075 114.259 57.1651 116.512 58.9015 118.58C59.0434 118.748 59.2179 118.872 59.4235 118.949L59.4249 118.95ZM94.7912 129.099C94.9995 129.178 95.214 129.199 95.4346 129.164C98.0186 128.767 100.578 128.239 103.11 127.581C103.278 127.538 103.43 127.463 103.567 127.36C103.706 127.255 103.82 127.129 103.908 126.979C103.999 126.828 104.055 126.666 104.082 126.495C104.108 126.322 104.099 126.151 104.059 125.982C104.017 125.811 103.945 125.658 103.844 125.519C103.742 125.378 103.618 125.265 103.47 125.174C103.323 125.085 103.165 125.028 102.996 125.004C102.826 124.979 102.656 124.988 102.491 125.031C99.9509 125.686 97.4502 126.211 95.0684 126.566C94.9256 126.587 94.7913 126.632 94.6642 126.699C94.5359 126.768 94.4224 126.853 94.3225 126.959C94.2226 127.065 94.1414 127.183 94.0814 127.314C94.0201 127.446 93.9825 127.585 93.9646 127.73C93.9493 127.875 93.9575 128.019 93.989 128.16C94.0193 128.302 94.0728 128.435 94.1469 128.559C94.2222 128.682 94.3154 128.791 94.425 128.882C94.5346 128.976 94.658 129.047 94.7912 129.099ZM58.4901 108.981L58.5521 109.004C58.7116 109.065 58.8793 109.093 59.0512 109.086C59.2231 109.08 59.3863 109.042 59.5419 108.968C59.6988 108.896 59.8366 108.795 59.9541 108.668C60.0729 108.541 60.1624 108.395 60.2241 108.232C60.2845 108.068 60.3134 107.9 60.3082 107.726C60.3031 107.551 60.2656 107.384 60.1944 107.227C60.1245 107.068 60.0279 106.93 59.9031 106.811C59.7783 106.69 59.6362 106.601 59.4754 106.541L59.4121 106.517C57.7162 105.864 56.0606 105.121 54.4454 104.287C54.5184 104.066 54.5314 103.841 54.4868 103.614C53.9964 101.181 53.8953 98.7286 54.186 96.2575C54.207 96.0845 54.1967 95.9127 54.15 95.7449C54.1059 95.577 54.031 95.4236 53.9253 95.2872C53.8195 95.1482 53.6923 95.0378 53.5425 94.9521C53.394 94.8678 53.2333 94.813 53.0632 94.793C52.8932 94.773 52.7241 94.7874 52.5586 94.8335C52.3918 94.881 52.2416 94.9596 52.1053 95.0668C51.9703 95.1753 51.8607 95.3053 51.7753 95.4583C51.6898 95.6112 51.6373 95.7749 51.6163 95.9479C51.3259 98.3859 51.382 100.813 51.7846 103.23C51.5204 103.29 51.2961 103.422 51.1118 103.625C50.9274 103.826 50.8171 104.063 50.7782 104.335C50.7393 104.607 50.7808 104.865 50.9015 105.11C51.0234 105.355 51.2024 105.543 51.4382 105.671L52.0411 105.999C54.1266 107.13 56.2772 108.125 58.4901 108.981ZM65.9788 110.925C66.0724 110.96 66.1709 110.984 66.2704 110.996C67.5397 111.157 68.8142 111.224 70.0936 111.196C71.528 111.161 72.9452 110.987 74.3478 110.669C74.5189 110.636 74.6785 110.569 74.8243 110.471C74.9686 110.371 75.0901 110.247 75.1874 110.098C75.2848 109.951 75.3491 109.788 75.3817 109.614C75.4131 109.44 75.4119 109.267 75.3755 109.093C75.339 108.92 75.2691 108.761 75.1684 108.616C75.0689 108.471 74.9455 108.353 74.7968 108.261C74.6493 108.167 74.4885 108.107 74.3155 108.079C74.144 108.053 73.9734 108.061 73.8026 108.104C72.5671 108.382 71.3174 108.536 70.0537 108.566C68.8954 108.59 67.7423 108.527 66.5932 108.378C66.4348 108.356 66.2786 108.365 66.1247 108.404C65.9693 108.441 65.8252 108.505 65.6936 108.596C65.562 108.687 65.4506 108.8 65.3581 108.934C65.2668 109.066 65.202 109.21 65.1623 109.368C65.1239 109.524 65.113 109.684 65.1334 109.844C65.1512 110.005 65.1974 110.157 65.2707 110.299C65.3453 110.442 65.4415 110.567 65.5607 110.672C65.6812 110.779 65.8152 110.86 65.9629 110.915L65.9788 110.925ZM45.0203 101.711C45.1667 101.768 45.3213 101.796 45.4804 101.796C45.6394 101.795 45.7936 101.764 45.9419 101.706C46.0914 101.648 46.2232 101.564 46.3426 101.457C46.4619 101.349 46.5586 101.222 46.6312 101.077C46.7052 100.934 46.7502 100.781 46.769 100.622C46.7864 100.461 46.7765 100.302 46.7367 100.146C46.6982 99.9911 46.6326 99.8465 46.5401 99.715C46.4502 99.5833 46.3374 99.4737 46.2057 99.3847C44.1314 97.9711 42.0939 96.433 40.1469 94.8292C40.0145 94.7163 39.8674 94.6332 39.7016 94.5813C39.5371 94.5306 39.3684 94.5119 39.1968 94.5291C39.0238 94.545 38.8611 94.5962 38.7084 94.6776C38.5557 94.7616 38.4233 94.87 38.3126 95.0067C38.2019 95.1434 38.1217 95.2962 38.0719 95.465C38.0208 95.6325 38.0037 95.8041 38.0219 95.9782C38.0388 96.1538 38.0893 96.3174 38.1708 96.4719C38.2535 96.6251 38.3631 96.7573 38.4966 96.8662C40.5055 98.5365 42.6096 100.12 44.7453 101.581C44.8316 101.635 44.9228 101.678 45.0203 101.711ZM109.727 125.3C110.013 125.41 110.305 125.414 110.597 125.313C111.679 124.939 112.785 124.538 113.89 124.121C115.157 123.636 116.471 123.132 117.882 122.542C118.043 122.477 118.184 122.384 118.307 122.261C118.431 122.14 118.528 121.998 118.595 121.838C118.665 121.678 118.7 121.511 118.703 121.336C118.707 121.162 118.677 120.995 118.614 120.832C118.552 120.67 118.461 120.528 118.343 120.402C118.223 120.279 118.085 120.181 117.928 120.111C117.77 120.044 117.605 120.008 117.434 120.005C117.263 120.003 117.097 120.036 116.938 120.1C115.536 120.67 114.249 121.177 112.998 121.654C111.922 122.062 110.838 122.456 109.778 122.818C109.52 122.907 109.309 123.064 109.146 123.29C108.984 123.515 108.899 123.766 108.894 124.044C108.888 124.321 108.961 124.576 109.114 124.805C109.268 125.034 109.472 125.197 109.728 125.296L109.727 125.3ZM33.1689 91.8574C33.3073 91.9091 33.4502 91.9367 33.5989 91.939C33.7463 91.94 33.8916 91.9159 34.031 91.8681C34.173 91.8203 34.3013 91.7492 34.4171 91.656C34.5356 91.5627 34.6341 91.4529 34.7137 91.3254C34.7934 91.1978 34.8507 91.0618 34.8828 90.9149C34.9176 90.7678 34.9276 90.6204 34.9114 90.4713C34.894 90.321 34.8533 90.1795 34.7893 90.0441C34.7253 89.9088 34.641 89.7902 34.5349 89.6843C32.7594 87.8831 31.0362 85.9978 29.4271 84.0459C29.3176 83.9136 29.1867 83.8073 29.0344 83.7271C28.8821 83.6468 28.7217 83.5999 28.5504 83.584C28.3792 83.5707 28.2116 83.589 28.0476 83.6417C27.8835 83.6943 27.7361 83.7781 27.6039 83.8918C27.4716 84.0028 27.366 84.1367 27.2859 84.2921C27.2057 84.4475 27.1584 84.6109 27.144 84.785C27.1269 84.9592 27.145 85.1281 27.1955 85.2944C27.2474 85.462 27.3274 85.6099 27.437 85.7448C29.0987 87.757 30.8722 89.7132 32.7182 91.5634C32.8486 91.6948 32.9975 91.7925 33.1689 91.8574ZM80.6336 107.469C80.8354 107.548 81.0461 107.573 81.2629 107.542C81.4784 107.512 81.6743 107.433 81.8503 107.302C83.8505 105.857 85.4343 104.037 86.6002 101.844C86.7916 101.483 86.962 101.117 87.1142 100.753C87.1811 100.592 87.2166 100.425 87.2179 100.249C87.2193 100.076 87.1883 99.9073 87.1249 99.7468C87.0601 99.585 86.9685 99.4414 86.8488 99.3175C86.7279 99.195 86.5895 99.0996 86.431 99.0315C86.2739 98.9647 86.1086 98.9312 85.9365 98.9299C85.7644 98.9285 85.5985 98.9614 85.44 99.027C85.2804 99.0941 85.1398 99.1896 85.0169 99.3122C84.8941 99.4348 84.7992 99.5762 84.7309 99.7377C84.6079 100.03 84.4694 100.328 84.3151 100.621C83.3379 102.451 82.0113 103.97 80.3377 105.174C80.145 105.315 79.9992 105.499 79.9053 105.721C79.8103 105.944 79.778 106.176 79.8085 106.416C79.8391 106.656 79.9289 106.87 80.0766 107.059C80.2229 107.247 80.4082 107.384 80.631 107.469L80.6336 107.469ZM124.071 119.557C124.393 119.677 124.713 119.67 125.031 119.532L126.715 118.805C128.488 118.042 130.322 117.249 132.129 116.487C132.285 116.417 132.42 116.319 132.538 116.196C132.655 116.071 132.746 115.931 132.81 115.771C132.872 115.611 132.904 115.446 132.905 115.275C132.904 115.104 132.873 114.938 132.809 114.779C132.745 114.621 132.654 114.48 132.535 114.36C132.417 114.238 132.28 114.144 132.125 114.077C131.971 114.01 131.81 113.975 131.64 113.971C131.472 113.968 131.308 113.998 131.151 114.06C129.335 114.826 127.496 115.621 125.716 116.387L124.036 117.113C123.791 117.217 123.595 117.384 123.451 117.609C123.305 117.836 123.234 118.082 123.239 118.352C123.242 118.623 123.32 118.866 123.472 119.085C123.625 119.305 123.825 119.461 124.071 119.557ZM54.822 89.9421C54.9657 89.9963 55.1139 90.0237 55.2677 90.0231C55.4216 90.0252 55.5707 89.9969 55.7151 89.9437C55.8596 89.8905 55.9929 89.8139 56.1112 89.7126C56.2281 89.6128 56.325 89.4938 56.4031 89.357C57.0464 88.2289 57.8057 87.1878 58.6783 86.2311C59.4093 85.4228 60.2349 84.7302 61.1566 84.1544C61.3105 84.0664 61.4401 83.9528 61.548 83.8109C61.6559 83.669 61.7321 83.5124 61.7779 83.3398C61.8223 83.1659 61.8328 82.9932 61.808 82.8154C61.7833 82.6401 61.7263 82.4754 61.6357 82.3225C61.5439 82.1711 61.428 82.043 61.2867 81.9398C61.1441 81.8353 60.9882 81.7645 60.8163 81.7273C60.6443 81.6876 60.4735 81.6848 60.301 81.7166C60.1273 81.7497 59.9675 81.8141 59.8218 81.9125C58.6888 82.6142 57.6721 83.4599 56.7718 84.4521C55.7693 85.5556 54.9013 86.7585 54.1667 88.0597C54.0799 88.2114 54.026 88.3737 54.0025 88.5468C53.9802 88.7212 53.9918 88.8917 54.0359 89.0595C54.0799 89.2274 54.1549 89.3808 54.2593 89.5186C54.3638 89.6563 54.4896 89.7681 54.6382 89.8551C54.6979 89.8886 54.7574 89.9168 54.8207 89.9409L54.822 89.9421ZM85.775 93.8611C86.0083 93.9489 86.2475 93.9676 86.4923 93.9145C86.7385 93.8627 86.9502 93.7472 87.1314 93.5694C87.3113 93.393 87.4315 93.1804 87.492 92.9343C87.5512 92.687 87.5414 92.4436 87.4612 92.203C86.6448 89.7226 85.0215 87.3353 82.7651 85.3168C82.6365 85.2025 82.4919 85.1166 82.3299 85.0606C82.1679 85.0045 82.0003 84.9818 81.8298 84.9923C81.6581 85.0041 81.4951 85.0475 81.341 85.1249C81.1855 85.2011 81.0504 85.3069 80.9356 85.4372C80.8222 85.5687 80.7366 85.7164 80.6802 85.8815C80.6251 86.0478 80.6001 86.217 80.6105 86.3915C80.6209 86.566 80.6635 86.7299 80.7399 86.8873C80.8149 87.0434 80.9154 87.1799 81.0439 87.2942C82.9617 89.0145 84.3322 91.0073 85.008 93.0533C85.1369 93.4458 85.3926 93.7168 85.775 93.8611ZM138.341 113.608C138.642 113.726 138.943 113.729 139.247 113.614C141.828 112.625 144.199 111.81 146.464 111.11C146.634 111.064 146.788 110.986 146.927 110.876C147.066 110.766 147.178 110.634 147.265 110.477C147.352 110.322 147.404 110.156 147.424 109.979C147.444 109.801 147.429 109.627 147.379 109.456C147.329 109.287 147.247 109.133 147.136 108.997C147.024 108.859 146.891 108.75 146.736 108.67C146.581 108.587 146.415 108.541 146.24 108.529C146.066 108.516 145.895 108.538 145.728 108.596C143.407 109.312 141.001 110.151 138.353 111.153C138.1 111.25 137.897 111.412 137.74 111.636C137.585 111.862 137.508 112.113 137.506 112.386C137.505 112.66 137.581 112.91 137.734 113.135C137.885 113.361 138.088 113.52 138.341 113.616L138.341 113.608ZM67.3659 82.2012C67.5215 82.2588 67.6814 82.2871 67.8468 82.2821C70.258 82.2587 72.5859 82.6809 74.8332 83.5513L74.8886 83.573C75.0494 83.6331 75.2158 83.6598 75.3864 83.6546C75.5583 83.6481 75.7227 83.6086 75.8796 83.5364C76.0365 83.4642 76.1731 83.3649 76.2906 83.2372C76.4093 83.1081 76.4989 82.9643 76.5593 82.8003C76.621 82.6377 76.6486 82.4684 76.6434 82.2937C76.6396 82.1203 76.602 81.9535 76.5322 81.7946C76.4623 81.6357 76.3643 81.4963 76.2396 81.3779C76.1148 81.2595 75.9713 81.1696 75.8118 81.1082L75.7485 81.0841C73.1967 80.0995 70.5517 79.6232 67.8148 79.6565C67.6649 79.6582 67.5185 79.6864 67.3767 79.7421C67.2362 79.7965 67.1068 79.8743 66.9924 79.9741C66.878 80.0738 66.7824 80.1914 66.7081 80.3241C66.6326 80.4581 66.5807 80.5992 66.5551 80.7499C66.5296 80.9006 66.5288 81.0516 66.5555 81.2029C66.5808 81.353 66.6306 81.4955 66.7049 81.6277C66.7792 81.76 66.8739 81.8756 66.989 81.9745C67.104 82.0734 67.2301 82.1494 67.3725 82.2023L67.3659 82.2012ZM153.1 109.135C153.332 109.224 153.57 109.242 153.812 109.189C155.031 108.937 156.253 108.71 157.434 108.54C158.692 108.35 159.977 108.21 161.259 108.122C161.425 108.105 161.583 108.057 161.733 107.978C161.882 107.898 162.01 107.794 162.12 107.664C162.228 107.532 162.31 107.386 162.364 107.224C162.418 107.062 162.439 106.897 162.43 106.726C162.42 106.557 162.378 106.394 162.306 106.241C162.235 106.088 162.137 105.954 162.013 105.839C161.889 105.724 161.75 105.638 161.592 105.58C161.435 105.522 161.272 105.493 161.106 105.5C159.755 105.591 158.397 105.74 157.073 105.936C155.84 106.121 154.574 106.35 153.307 106.613C153.17 106.642 153.038 106.692 152.916 106.764C152.795 106.834 152.686 106.924 152.593 107.031C152.499 107.139 152.424 107.259 152.369 107.389C152.313 107.521 152.278 107.658 152.268 107.8C152.255 107.942 152.266 108.083 152.3 108.221C152.333 108.36 152.387 108.489 152.461 108.611C152.536 108.732 152.628 108.837 152.738 108.925C152.846 109.015 152.965 109.085 153.099 109.134L153.1 109.135ZM168.403 108.116C168.514 108.16 168.627 108.184 168.744 108.193C171.234 108.409 173.687 108.829 176.106 109.453C176.271 109.492 176.436 109.496 176.602 109.469C176.77 109.441 176.925 109.382 177.07 109.293C177.214 109.204 177.336 109.091 177.438 108.953C177.539 108.815 177.612 108.663 177.655 108.498C177.698 108.331 177.709 108.164 177.687 107.994C177.665 107.824 177.613 107.664 177.531 107.516C177.448 107.368 177.34 107.24 177.208 107.135C177.076 107.03 176.93 106.954 176.767 106.907C174.208 106.245 171.612 105.8 168.977 105.572C168.821 105.558 168.668 105.572 168.517 105.616C168.365 105.658 168.225 105.725 168.099 105.819C167.972 105.914 167.865 106.026 167.778 106.16C167.691 106.293 167.628 106.437 167.594 106.592C167.558 106.748 167.551 106.903 167.571 107.062C167.592 107.22 167.639 107.368 167.712 107.509C167.785 107.648 167.882 107.77 167.999 107.875C168.117 107.979 168.249 108.06 168.395 108.114L168.403 108.116ZM189.697 116.121C189.841 116.175 189.989 116.202 190.144 116.203C190.297 116.204 190.447 116.177 190.592 116.123C190.736 116.07 190.87 115.994 190.988 115.892C191.105 115.793 191.203 115.672 191.28 115.537C191.357 115.401 191.407 115.256 191.434 115.102C191.461 114.947 191.459 114.793 191.431 114.641C191.404 114.487 191.35 114.343 191.272 114.21C191.192 114.075 191.092 113.96 190.973 113.862C188.886 112.176 186.634 110.756 184.218 109.605C184.063 109.53 183.899 109.487 183.728 109.479C183.556 109.47 183.388 109.496 183.226 109.555C183.062 109.613 182.917 109.702 182.789 109.82C182.66 109.936 182.558 110.074 182.485 110.233C182.41 110.391 182.366 110.558 182.357 110.732C182.347 110.907 182.371 111.077 182.428 111.242C182.484 111.405 182.57 111.554 182.685 111.684C182.8 111.813 182.934 111.915 183.089 111.99C185.33 113.053 187.417 114.363 189.355 115.919C189.459 116.005 189.573 116.072 189.7 116.121L189.697 116.121Z" fill="#494949"/>
</g>
</g>
</g>
</g>
<mask id="mask8_298_5095" style="mask-type:luminance" maskUnits="userSpaceOnUse" x="18" y="73" width="9" height="9">
<path d="M26.5405 77.877L23.6302 81.0405L18.8228 76.4768L21.7331 73.3133L26.5405 77.877Z" fill="white"/>
</mask>
<g mask="url(#mask8_298_5095)">
<mask id="mask9_298_5095" style="mask-type:luminance" maskUnits="userSpaceOnUse" x="0" y="47" width="202" height="123">
<path d="M181.838 169.464L0.0665883 100.353L20.0011 47.1283L201.772 116.239L181.838 169.464Z" fill="white"/>
</mask>
<g mask="url(#mask9_298_5095)">
<mask id="mask10_298_5095" style="mask-type:luminance" maskUnits="userSpaceOnUse" x="0" y="47" width="202" height="123">
<path d="M201.8 116.151L20.0289 47.0409L0.0944203 100.266L181.865 169.376L201.8 116.151Z" fill="white"/>
</mask>
<g mask="url(#mask10_298_5095)">
<mask id="mask11_298_5095" style="mask-type:luminance" maskUnits="userSpaceOnUse" x="0" y="47" width="202" height="123">
<path d="M201.795 116.154L20.0245 47.0433L0.0900258 100.268L181.861 169.379L201.795 116.154Z" fill="white"/>
</mask>
<g mask="url(#mask11_298_5095)">
<path d="M23.3074 79.9392C23.4367 79.9899 23.5704 80.0165 23.7088 80.0218C23.8458 80.0285 23.9809 80.0101 24.1128 79.9732C24.2459 79.935 24.3706 79.8759 24.4856 79.7974C24.6006 79.7188 24.7009 79.6262 24.7862 79.5143C24.8717 79.4051 24.9385 79.2833 24.9854 79.1503C25.0336 79.0187 25.0583 78.8826 25.0633 78.7434C25.067 78.6028 25.0499 78.4657 25.012 78.332C24.9729 78.1971 24.9158 78.0734 24.8367 77.9572C24.1277 76.9035 23.4306 75.8148 22.7504 74.7215C22.6586 74.5727 22.5442 74.4486 22.403 74.348C22.2631 74.2461 22.1098 74.1778 21.9418 74.1392C21.7738 74.1006 21.6042 74.0965 21.4343 74.1255C21.2645 74.1572 21.1059 74.2176 20.96 74.3106C20.8142 74.4062 20.6912 74.5235 20.5899 74.6665C20.4898 74.8107 20.4214 74.967 20.3822 75.1381C20.3429 75.3091 20.3362 75.4803 20.3661 75.6527C20.3934 75.8251 20.4542 75.9857 20.5446 76.1333C21.2295 77.2542 21.955 78.3802 22.6942 79.4831C22.8519 79.6996 23.0558 79.8521 23.3074 79.9392Z" fill="#494949"/>
</g>
</g>
</g>
</g>
<mask id="mask12_298_5095" style="mask-type:luminance" maskUnits="userSpaceOnUse" x="1" y="57" width="35" height="37">
<path d="M35.8169 75.4934L19.6471 93.0702L1.10256 75.4659L17.2723 57.8891L35.8169 75.4934Z" fill="white"/>
</mask>
<g mask="url(#mask12_298_5095)">
<mask id="mask13_298_5095" style="mask-type:luminance" maskUnits="userSpaceOnUse" x="0" y="47" width="202" height="123">
<path d="M181.837 169.474L0.0656118 100.364L20.0001 47.139L201.771 116.25L181.837 169.474Z" fill="white"/>
</mask>
<g mask="url(#mask13_298_5095)">
<mask id="mask14_298_5095" style="mask-type:luminance" maskUnits="userSpaceOnUse" x="0" y="47" width="202" height="123">
<path d="M201.801 116.167L20.0299 47.056L0.0953969 100.281L181.866 169.391L201.801 116.167Z" fill="white"/>
</mask>
<g mask="url(#mask14_298_5095)">
<mask id="mask15_298_5095" style="mask-type:luminance" maskUnits="userSpaceOnUse" x="0" y="47" width="202" height="123">
<path d="M201.8 116.164L20.0294 47.0538L0.0949086 100.279L181.866 169.389L201.8 116.164Z" fill="white"/>
</mask>
<g mask="url(#mask15_298_5095)">
<path d="M14.7536 61.238C15.6302 69.1494 15.5816 79.5498 13.7219 86.9472L22.7123 77.2127L35.7114 75.528C28.7632 72.7032 20.4917 66.6157 14.7536 61.238Z" fill="#494949"/>
</g>
</g>
</g>
</g>
</svg>
