<svg width="32" height="32" viewBox="0 0 32 32" fill="none" xmlns="http://www.w3.org/2000/svg">
<path d="M19.4804 3.23535H3.62109V28.9584H19.4804V3.23535ZM10.7771 24.0749H9.13318V21.0771H10.7771V24.0749ZM10.7771 18.031H9.13318V15.0332H10.7771V18.031ZM10.7771 12.0354H9.13318V9.03755H10.7771V12.0354ZM15.7574 24.0749H14.1134V21.0771H15.7574V24.0749ZM15.7574 18.031H14.1134V15.0332H15.7574V18.031ZM15.7574 12.0354H14.1134V9.03755H15.7574V12.0354Z" fill="#4169E1"/>
<path d="M30.3593 25.7187V13.7759H20.834V28.9583H27.1197C28.9087 28.9583 30.3593 27.5077 30.3593 25.7187ZM26.6845 24.1231H23.4933V22.5275H26.6845V24.1231ZM26.6845 20.1099H23.4933V18.466H26.6845V20.1099Z" fill="#4169E1"/>
</svg>
