<svg width="56" height="56" viewBox="0 0 56 56" fill="none" xmlns="http://www.w3.org/2000/svg">
<path d="M11.6667 9.33325C9.08927 9.33325 7 11.4333 7 13.9999V46.6666C7 49.2332 9.08927 51.3333 11.6667 51.3333H25.6667H30.3333H44.3333C46.9117 51.3333 49 49.2332 49 46.6666V13.9999C49 11.4333 46.9117 9.33325 44.3333 9.33325H30.3333H25.6667H11.6667Z" fill="#BDC3C7"/>
<path d="M11.6667 7C9.08927 7 7 9.08927 7 11.6667V44.3333C7 46.9117 9.08927 49 11.6667 49H25.6667H30.3333H44.3333C46.9117 49 49 46.9117 49 44.3333V11.6667C49 9.08927 46.9117 7 44.3333 7H30.3333H25.6667H11.6667Z" fill="#ECF0F1"/>
<path d="M11.6667 7C9.08927 7 7 9.1 7 11.6667V18.6667H49V11.6667C49 9.1 46.9117 7 44.3333 7H30.3333H25.6667H11.6667Z" fill="#E74C3C"/>
<path d="M17.5 12.8333C17.5 13.2929 17.4095 13.748 17.2336 14.1726C17.0577 14.5973 16.7999 14.9831 16.4749 15.3081C16.1499 15.6331 15.764 15.8909 15.3394 16.0668C14.9148 16.2427 14.4596 16.3333 14 16.3333C13.5404 16.3333 13.0852 16.2427 12.6606 16.0668C12.236 15.8909 11.8501 15.6331 11.5251 15.3081C11.2001 14.9831 10.9423 14.5973 10.7664 14.1726C10.5905 13.748 10.5 13.2929 10.5 12.8333C10.5 12.3736 10.5905 11.9185 10.7664 11.4939C10.9423 11.0692 11.2001 10.6834 11.5251 10.3584C11.8501 10.0334 12.236 9.77556 12.6606 9.59967C13.0852 9.42378 13.5404 9.33325 14 9.33325C14.4596 9.33325 14.9148 9.42378 15.3394 9.59967C15.764 9.77556 16.1499 10.0334 16.4749 10.3584C16.7999 10.6834 17.0577 11.0692 17.2336 11.4939C17.4095 11.9185 17.5 12.3736 17.5 12.8333Z" fill="#C0392B"/>
<path d="M14.0001 2.33325C12.7114 2.33325 11.6667 3.37789 11.6667 4.66659V11.6666C11.6667 12.9553 12.7114 13.9999 14.0001 13.9999C15.2888 13.9999 16.3334 12.9553 16.3334 11.6666V4.66659C16.3334 3.37789 15.2888 2.33325 14.0001 2.33325Z" fill="#BDC3C7"/>
<path d="M45.5 12.8333C45.5 13.2929 45.4095 13.748 45.2336 14.1726C45.0577 14.5973 44.7999 14.9831 44.4749 15.3081C44.1499 15.6331 43.764 15.8909 43.3394 16.0668C42.9148 16.2427 42.4596 16.3333 42 16.3333C41.5404 16.3333 41.0852 16.2427 40.6606 16.0668C40.236 15.8909 39.8501 15.6331 39.5251 15.3081C39.2001 14.9831 38.9423 14.5973 38.7664 14.1726C38.5905 13.748 38.5 13.2929 38.5 12.8333C38.5 12.3736 38.5905 11.9185 38.7664 11.4939C38.9423 11.0692 39.2001 10.6834 39.5251 10.3584C39.8501 10.0334 40.236 9.77556 40.6606 9.59967C41.0852 9.42378 41.5404 9.33325 42 9.33325C42.4596 9.33325 42.9148 9.42378 43.3394 9.59967C43.764 9.77556 44.1499 10.0334 44.4749 10.3584C44.7999 10.6834 45.0577 11.0692 45.2336 11.4939C45.4095 11.9185 45.5 12.3736 45.5 12.8333Z" fill="#C0392B"/>
<path d="M42.0001 2.33325C40.7121 2.33325 39.6667 3.26659 39.6667 4.66659V11.6666C39.6667 12.8333 40.7121 13.9999 42.0001 13.9999C43.2881 13.9999 44.3334 12.8333 44.3334 11.6666V4.66659C44.3334 3.26659 43.2881 2.33325 42.0001 2.33325Z" fill="#BDC3C7"/>
<path d="M11.6667 25.6665V30.3332H16.3334V25.6665H11.6667ZM18.6667 25.6665V30.3332H23.3334V25.6665H18.6667ZM25.6667 25.6665V30.3332H30.3334V25.6665H25.6667ZM32.6667 25.6665V30.3332H37.3334V25.6665H32.6667ZM39.6667 25.6665V30.3332H44.3334V25.6665H39.6667Z" fill="#BDC3C7"/>
<path d="M11.6667 32.6665V37.3332H16.3334V32.6665H11.6667ZM18.6667 32.6665V37.3332H23.3334V32.6665H18.6667ZM25.6667 32.6665V37.3332H30.3334V32.6665H25.6667ZM32.6667 32.6665V37.3332H37.3334V32.6665H32.6667ZM39.6667 32.6665V37.3332H44.3334V32.6665H39.6667Z" fill="#BDC3C7"/>
<path d="M11.6667 39.6665V44.3332H16.3334V39.6665H11.6667ZM18.6667 39.6665V44.3332H23.3334V39.6665H18.6667ZM25.6667 39.6665V44.3332H30.3334V39.6665H25.6667ZM32.6667 39.6665V44.3332H37.3334V39.6665H32.6667ZM39.6667 39.6665V44.3332H44.3334V39.6665H39.6667Z" fill="#BDC3C7"/>
<path d="M49 18.6665H7V20.9998H49V18.6665Z" fill="#C0392B"/>
</svg>
