<svg width="157" height="44" viewBox="0 0 157 44" fill="none" xmlns="http://www.w3.org/2000/svg">
<g clip-path="url(#clip0_525_3509)">
<path d="M82.3341 9.52456L67.5843 42.8076C67.3796 43.2681 66.8391 43.476 66.3786 43.2713L61.6773 41.1893C61.2935 41.0198 61.0665 40.6073 61.1464 40.1979C61.4438 38.6628 60.6571 37.0733 59.17 36.4145C57.6796 35.7557 55.975 36.2418 55.038 37.4923C54.7853 37.8281 54.3312 37.9368 53.9474 37.7673L49.2461 35.6853C48.7856 35.4807 48.5777 34.9402 48.7824 34.4796L63.5322 1.19341C63.7369 0.732873 64.2774 0.524994 64.7379 0.729675L70.1716 3.13787C70.194 3.14747 70.1492 3.18265 70.1396 3.20823C69.372 4.93843 70.1524 6.96285 71.8858 7.7304C73.6192 8.49796 75.6404 7.71761 76.4079 5.98422C76.4175 5.96183 76.4143 5.90426 76.4367 5.91386L81.8704 8.32206C82.3309 8.52674 82.5388 9.06722 82.3341 9.52776V9.52456Z" stroke="#1D224E" stroke-width="1.57204" stroke-miterlimit="10"/>
<path d="M60.1997 8.71558L79.0016 17.0467" stroke="#1D224E" stroke-width="1.57204" stroke-miterlimit="15" stroke-linecap="round"/>
<path d="M50.1697 31.7259L50.1633 31.3677L49.7667 10.6981L49.61 2.47572C49.6004 1.97042 50.0002 1.55466 50.5055 1.54506L56.4477 1.42993C56.4732 1.42993 56.4477 1.4811 56.4477 1.50669C56.4828 3.39999 58.0467 4.90311 59.94 4.86793C60.9187 4.84874 61.8525 4.61528 62.4026 3.75818L62.6744 3.14733" stroke="#1D224E" stroke-width="1.57204" stroke-miterlimit="10"/>
<path d="M50.2527 36.1267L50.3071 38.8707C50.3166 39.376 50.7324 39.7758 51.2377 39.7662L56.3771 39.667C56.7961 39.6607 57.1639 39.3664 57.2502 38.9571C57.4869 37.8313 58.2768 36.9039 59.3258 36.4817" stroke="#1D224E" stroke-width="1.57204" stroke-miterlimit="10"/>
<path d="M59.396 10.5254L49.7632 10.6981" stroke="#1D224E" stroke-width="1.57204" stroke-miterlimit="15" stroke-linecap="round"/>
<path d="M71.8583 18.4523L63.9404 14.9435C63.4479 14.7253 62.8717 14.9476 62.6534 15.4401L55.965 30.5334C55.7467 31.0259 55.9691 31.6021 56.4616 31.8203L64.3795 35.3291C64.8721 35.5474 65.4483 35.325 65.6665 34.8325L72.3549 19.7393C72.5732 19.2467 72.3509 18.6705 71.8583 18.4523Z" stroke="#1D224E" stroke-width="1.43265" stroke-miterlimit="20" stroke-linecap="round"/>
<path d="M18.3253 23.4105V27.5137C15.9747 28.761 13.5121 29.3846 10.9408 29.3846C7.60518 29.3846 4.94752 28.4635 2.96787 26.6214C0.988225 24.7761 0 22.5022 0 19.803C0 17.1038 1.04259 14.8107 3.12778 12.927C5.21297 11.0433 7.93778 10.103 11.3022 10.103C13.9855 10.103 16.2529 10.6531 18.1111 11.7565V15.9396C15.834 14.6572 13.6752 14.0175 11.6412 14.0175C9.60721 14.0175 8.00494 14.5548 6.73848 15.6262C5.46882 16.6976 4.83559 18.0632 4.83559 19.723C4.83559 21.3829 5.46242 22.7677 6.71289 23.8518C7.96337 24.9392 9.56563 25.4797 11.5229 25.4797C12.4919 25.4797 13.4258 25.3518 14.3213 25.0959C15.2167 24.8401 16.5536 24.2772 18.3317 23.4073L18.3253 23.4105Z" fill="#3957D7"/>
<path d="M34.5747 26.0041V28.2236C33.2475 28.9943 32.0002 29.3813 30.8361 29.3813C29.5792 29.3813 28.834 28.9048 28.6006 27.9549C27.2094 28.9048 25.815 29.3813 24.4174 29.3813C23.4292 29.3813 22.5913 29.0679 21.9005 28.4442C21.2097 27.8206 20.8643 27.0946 20.8643 26.2695C20.8643 25.1629 21.2225 24.2739 21.9324 23.5959C22.6456 22.9178 24.8044 22.0448 28.4119 20.9766C28.5014 19.5598 27.7658 18.8498 26.2052 18.8498C24.5101 18.8498 22.9494 19.5598 21.5231 20.9766V17.7209C23.1925 16.6911 25.025 16.173 27.0239 16.173C30.6122 16.173 32.4063 17.4618 32.4063 20.0395V25.8314C32.4063 26.423 32.627 26.7204 33.0652 26.7204C33.3978 26.7204 33.8999 26.4838 34.5715 26.0073L34.5747 26.0041ZM28.4151 26.0552V22.9786C27.0782 23.4455 26.1604 23.8677 25.6647 24.2419C25.1658 24.6161 24.9195 25.0894 24.9195 25.6651C24.9195 26.0328 25.0442 26.3495 25.2969 26.6149C25.5463 26.8803 25.8534 27.0147 26.2115 27.0147C26.9663 27.0147 27.6987 26.6949 28.4183 26.0552H28.4151Z" fill="#3957D7"/>
<path d="M40.3346 16.4386V20.0717H40.389C41.5467 17.4716 42.8963 16.1699 44.4378 16.1699C45.1734 16.1699 46.0561 16.5569 47.0891 17.3276L45.9857 20.868C44.9975 20.2412 44.2107 19.9245 43.6191 19.9245C42.6948 19.9245 41.9177 20.497 41.2844 21.6419C40.6512 22.7869 40.3346 23.4553 40.3346 23.644V29.1416H36.3369V16.4418H40.3346V16.4386Z" fill="#3957D7"/>
<path d="M90.7474 10.3459L99.0945 29.1414H94.0607L92.5128 25.4284H84.0953L82.6913 29.1414H77.731L85.3233 10.3459H90.7474ZM91.144 22.1439L88.0961 14.8393L85.3361 22.1439H91.144Z" fill="#3957D7"/>
<path d="M104.893 10.3459V29.1414H100.898V10.3459H104.893Z" fill="#3957D7"/>
<path d="M120.675 25.1981V27.7151C119.15 28.828 117.263 29.3845 115.012 29.3845C112.76 29.3845 110.995 28.7864 109.658 27.5871C108.321 26.3878 107.653 24.8016 107.653 22.8251C107.653 20.8487 108.279 19.2912 109.536 18.0439C110.793 16.7966 112.392 16.173 114.34 16.173C116.288 16.173 117.896 16.8286 119.15 18.143C120.4 19.4575 120.986 21.2164 120.906 23.4232H111.785C111.868 24.5745 112.274 25.4636 113.009 26.084C113.745 26.7044 114.73 27.0147 115.968 27.0147C117.464 27.0147 119.035 26.4102 120.675 25.1981ZM111.865 21.322H117.381C117.167 19.4735 116.246 18.5524 114.625 18.5524C113.003 18.5524 112.063 19.4767 111.868 21.322H111.865Z" fill="#3957D7"/>
<path d="M127.59 16.4386V20.0717H127.644C128.802 17.4716 130.151 16.1699 131.693 16.1699C132.428 16.1699 133.311 16.5569 134.344 17.3276L133.241 20.868C132.253 20.2412 131.466 19.9245 130.874 19.9245C129.95 19.9245 129.173 20.497 128.54 21.6419C127.906 22.7869 127.59 23.4553 127.59 23.644V29.1416H123.592V16.4418H127.59V16.4386Z" fill="#3957D7"/>
<path d="M145.509 16.4384V19.1696H140.881V24.4049C140.881 25.0318 141.054 25.5275 141.399 25.8921C141.744 26.2535 142.221 26.4358 142.832 26.4358C143.657 26.4358 144.549 26.1895 145.509 25.697V28.5881C144.236 29.119 143.001 29.3812 141.808 29.3812C140.248 29.3812 139.036 28.9783 138.175 28.1691C137.315 27.3632 136.883 26.1767 136.883 24.616V19.1664H135.067V18.386L140.382 12.4375H140.881V16.4352H145.509V16.4384Z" fill="#3957D7"/>
<path d="M156.299 17.1132V19.9532C154.774 19.0193 153.363 18.5524 152.062 18.5524C151.102 18.5524 150.623 18.8786 150.623 19.5342C150.623 19.7037 150.722 19.8732 150.926 20.0395C151.128 20.2058 151.902 20.5576 153.245 21.0917C154.591 21.6258 155.541 22.2462 156.098 22.9434C156.654 23.6438 156.932 24.4114 156.932 25.2461C156.932 26.5669 156.485 27.5839 155.586 28.3035C154.691 29.0199 153.411 29.3813 151.751 29.3813C150.092 29.3813 148.531 29.0711 147.204 28.4538V25.6427C148.838 26.359 150.204 26.7204 151.307 26.7204C152.599 26.7204 153.245 26.407 153.245 25.7802C153.245 25.5403 153.127 25.3101 152.887 25.0958C152.647 24.8815 151.847 24.5073 150.485 23.9732C149.123 23.4391 148.192 22.8539 147.69 22.2175C147.188 21.581 146.935 20.871 146.935 20.0907C146.935 18.933 147.418 17.9895 148.381 17.2635C149.346 16.5376 150.616 16.173 152.196 16.173C153.776 16.173 155.081 16.4864 156.299 17.1132Z" fill="#3957D7"/>
</g>
<defs>
<clipPath id="clip0_525_3509">
<rect width="156.933" height="44" fill="white"/>
</clipPath>
</defs>
</svg>
