<svg width="18" height="18" viewBox="0 0 18 18" fill="none" xmlns="http://www.w3.org/2000/svg">
<path d="M11.6325 2.12256H6.3675C4.5 2.12256 4.0875 3.05256 3.8475 4.19256L3 8.25006H15L14.1525 4.19256C13.9125 3.05256 13.5 2.12256 11.6325 2.12256Z" stroke="#4169E1" stroke-width="1.5" stroke-linecap="round" stroke-linejoin="round"/>
<path d="M16.4916 14.865C16.5741 15.7425 15.8691 16.5 14.9691 16.5H13.5591C12.7491 16.5 12.6366 16.155 12.4941 15.7275L12.3441 15.2775C12.1341 14.6625 11.9991 14.25 10.9191 14.25H7.07907C5.99907 14.25 5.84157 14.715 5.65407 15.2775L5.50407 15.7275C5.36157 16.155 5.24907 16.5 4.43907 16.5H3.02907C2.12907 16.5 1.42407 15.7425 1.50657 14.865L1.92657 10.2975C2.03157 9.1725 2.24907 8.25 4.21407 8.25H13.7841C15.7491 8.25 15.9666 9.1725 16.0716 10.2975L16.4916 14.865Z" stroke="#4169E1" stroke-width="1.5" stroke-linecap="round" stroke-linejoin="round"/>
<path d="M3 6H2.25" stroke="#4169E1" stroke-width="1.5" stroke-linecap="round" stroke-linejoin="round"/>
<path d="M15.75 6H15" stroke="#4169E1" stroke-width="1.5" stroke-linecap="round" stroke-linejoin="round"/>
<path d="M9 2.25V3.75" stroke="#4169E1" stroke-width="1.5" stroke-linecap="round" stroke-linejoin="round"/>
<path d="M7.875 3.75H10.125" stroke="#4169E1" stroke-width="1.5" stroke-linecap="round" stroke-linejoin="round"/>
<path d="M4.5 11.25H6.75" stroke="#4169E1" stroke-width="1.5" stroke-linecap="round" stroke-linejoin="round"/>
<path d="M11.25 11.25H13.5" stroke="#4169E1" stroke-width="1.5" stroke-linecap="round" stroke-linejoin="round"/>
</svg>
