<svg width="20" height="21" viewBox="0 0 20 21" fill="none" xmlns="http://www.w3.org/2000/svg">
<path d="M15.9886 7.04173H4.01138L4.084 6.69583L4.40067 5.1875L4.40067 5.1875L4.40128 5.18452C4.54372 4.49213 4.73961 3.96896 5.08939 3.60978C5.41437 3.27607 5.97382 2.9834 7.075 2.9834H12.925C14.0262 2.9834 14.5856 3.27607 14.9106 3.60978C15.2604 3.96896 15.4563 4.49213 15.5987 5.18452L15.5993 5.1875L15.916 6.69583L15.9886 7.04173Z" fill="#667185" stroke="#667185" stroke-width="1.5"/>
<path d="M17.7371 11.9521L17.7371 11.9513C17.6755 11.2748 17.5625 10.7707 17.277 10.4226C17.0256 10.1161 16.5185 9.79175 15.3173 9.79175H4.68397C3.48305 9.79175 2.97832 10.1159 2.72798 10.4219C2.44266 10.7706 2.32999 11.2745 2.26398 11.954L1.79749 17.0271L1.79748 17.0272C1.75828 17.4528 1.89839 17.8771 2.18801 18.1946L17.7371 11.9521ZM17.7371 11.9521L18.2038 17.0271L18.2038 17.0272C18.243 17.4528 18.1029 17.8771 17.8132 18.1946C17.5163 18.5193 17.0853 18.7084 16.634 18.7084H15.0673C14.5478 18.7084 14.3541 18.5659 14.2696 18.4803C14.1551 18.3643 14.0922 18.2076 14.005 17.9414L14.005 17.9414L14.0038 17.9379L13.8372 17.4379L13.8372 17.4379L13.8353 17.4323C13.8322 17.4234 13.8291 17.4144 13.826 17.4053C13.7792 17.2682 13.7264 17.1135 13.6662 16.9827C13.5977 16.8336 13.4891 16.6437 13.2936 16.4898C13.0947 16.3334 12.8778 16.2701 12.6928 16.2407C12.5181 16.2128 12.3241 16.2084 12.134 16.2084H7.86731C7.51075 16.2084 7.04669 16.2244 6.68516 16.5223C6.50029 16.6746 6.3938 16.8569 6.32476 17.0068C6.26323 17.1404 6.21239 17.293 6.1698 17.4209C6.16789 17.4266 6.166 17.4323 6.16413 17.4379L5.99746 17.9379L5.99745 17.9379M17.7371 11.9521L5.99745 17.9379M5.99745 17.9379L5.9963 17.9414M5.99745 17.9379L5.9963 17.9414M5.9963 17.9414C5.90903 18.2076 5.84623 18.3643 5.73166 18.4803C5.64714 18.5659 5.45344 18.7084 4.93397 18.7084H3.36731C2.90904 18.7084 2.48596 18.5204 2.18805 18.1946L5.9963 17.9414ZM5.00064 14.3751H7.50064C8.25652 14.3751 8.87564 13.756 8.87564 13.0001C8.87564 12.2442 8.25652 11.6251 7.50064 11.6251H5.00064C4.24476 11.6251 3.62564 12.2442 3.62564 13.0001C3.62564 13.756 4.24476 14.3751 5.00064 14.3751ZM12.5006 14.3751H15.0006C15.7565 14.3751 16.3756 13.756 16.3756 13.0001C16.3756 12.2442 15.7565 11.6251 15.0006 11.6251H12.5006C11.7448 11.6251 11.1256 12.2442 11.1256 13.0001C11.1256 13.756 11.7448 14.3751 12.5006 14.3751Z" fill="#667185" stroke="#667185" stroke-width="1.5"/>
</svg>
