<svg width="20" height="21" viewBox="0 0 20 21" fill="none" xmlns="http://www.w3.org/2000/svg">
<path d="M15.9886 7.04173H4.01138L4.084 6.69583L4.40067 5.1875L4.40067 5.1875L4.40128 5.18452C4.54372 4.49213 4.73961 3.96896 5.08939 3.60978C5.41437 3.27607 5.97382 2.9834 7.075 2.9834H12.925C14.0262 2.9834 14.5856 3.27607 14.9106 3.60978C15.2604 3.96896 15.4563 4.49213 15.5987 5.18452L15.5993 5.1875L15.916 6.69583L15.9886 7.04173Z" fill="#4169E1" stroke="#4169E1" stroke-width="1.5"/>
<path d="M17.7361 11.9513L17.7361 11.9521L18.2028 17.0271L18.2028 17.0272C18.242 17.4526 18.102 17.8767 17.8127 18.1942C17.5157 18.5192 17.0846 18.7084 16.633 18.7084H15.0663C14.5469 18.7084 14.3532 18.5659 14.2686 18.4803C14.1541 18.3643 14.0913 18.2076 14.004 17.9414L14.004 17.9414L14.0028 17.9379L13.8362 17.4379L13.8362 17.4379L13.8343 17.4323C13.8312 17.4234 13.8282 17.4144 13.825 17.4053C13.7782 17.2682 13.7254 17.1135 13.6652 16.9827C13.5967 16.8336 13.4881 16.6437 13.2926 16.4898C13.0938 16.3334 12.8768 16.2701 12.6918 16.2407C12.5171 16.2128 12.3231 16.2084 12.133 16.2084H7.86633C7.50977 16.2084 7.04572 16.2244 6.68418 16.5223C6.49932 16.6746 6.39283 16.8569 6.32379 17.0068C6.26226 17.1404 6.21141 17.293 6.16882 17.4209L6.16315 17.4379L5.99649 17.9379L5.99648 17.9379L5.99533 17.9414C5.90806 18.2076 5.84525 18.3643 5.73069 18.4803C5.64617 18.5659 5.45246 18.7084 4.933 18.7084H3.36633C2.90796 18.7084 2.48479 18.5203 2.18688 18.1944C1.89736 17.8769 1.75731 17.4527 1.7965 17.0272L1.79651 17.0271L2.26301 11.954C2.32901 11.2745 2.44169 10.7706 2.72701 10.4219C2.97735 10.1159 3.48208 9.79175 4.683 9.79175H15.3163C16.5175 9.79175 17.0246 10.1161 17.276 10.4226C17.5615 10.7707 17.6746 11.2748 17.7361 11.9513ZM4.99966 14.3751H7.49966C8.25554 14.3751 8.87466 13.756 8.87466 13.0001C8.87466 12.2442 8.25554 11.6251 7.49966 11.6251H4.99966C4.24378 11.6251 3.62466 12.2442 3.62466 13.0001C3.62466 13.756 4.24378 14.3751 4.99966 14.3751ZM12.4997 14.3751H14.9997C15.7555 14.3751 16.3747 13.756 16.3747 13.0001C16.3747 12.2442 15.7555 11.6251 14.9997 11.6251H12.4997C11.7438 11.6251 11.1247 12.2442 11.1247 13.0001C11.1247 13.756 11.7438 14.3751 12.4997 14.3751Z" fill="#4169E1" stroke="#4169E1" stroke-width="1.5"/>
</svg>
