<svg width="20" height="21" viewBox="0 0 20 21" fill="none" xmlns="http://www.w3.org/2000/svg">
<path d="M9.5029 16.9887L9.50287 16.9887L9.49687 16.9941C8.74655 17.6737 7.75771 18.0834 6.66699 18.0834C4.32287 18.0834 2.41699 16.1775 2.41699 13.8334C2.41699 12.5474 2.99516 11.3908 3.90693 10.6106C4.81871 12.2241 6.34898 13.4248 8.14919 13.9142C8.74316 14.0834 9.3611 14.1667 10.0003 14.1667C10.3112 14.1667 10.6132 14.1465 10.9082 14.1083C10.835 15.252 10.3081 16.2751 9.5029 16.9887Z" fill="#4169E1" stroke="#4169E1" stroke-width="1.5"/>
<path d="M15 7.16675C15 7.81675 14.875 8.44175 14.65 9.00841C14.075 10.4584 12.8417 11.5751 11.3167 11.9917C10.9 12.1084 10.4583 12.1667 10 12.1667C9.54167 12.1667 9.1 12.1084 8.68333 11.9917C7.15833 11.5751 5.925 10.4584 5.35 9.00841C5.125 8.44175 5 7.81675 5 7.16675C5 4.40841 7.24167 2.16675 10 2.16675C12.7583 2.16675 15 4.40841 15 7.16675Z" fill="#4169E1"/>
<path d="M18.3337 13.8334C18.3337 16.5917 16.092 18.8334 13.3337 18.8334C12.7539 18.8334 12.1947 18.7346 11.6763 18.5515C11.3548 18.4379 11.295 18.0299 11.512 17.7669C12.4168 16.6699 12.917 15.2825 12.917 13.8334C12.917 13.55 12.892 13.2667 12.8503 13C12.8255 12.8463 12.904 12.6952 13.0402 12.6198C14.1159 12.0243 14.9993 11.1197 15.5633 10.0151C15.7014 9.74462 16.0375 9.6246 16.2825 9.80402C17.5229 10.7125 18.3337 12.1806 18.3337 13.8334Z" fill="#4169E1"/>
</svg>
