<svg width="20" height="21" viewBox="0 0 20 21" fill="none" xmlns="http://www.w3.org/2000/svg">
<mask id="path-1-inside-1_1888_10122" fill="white">
<path d="M11.666 13.8334C11.666 15.3084 11.0243 16.6417 9.99935 17.55C9.11602 18.35 7.94935 18.8334 6.66602 18.8334C3.90768 18.8334 1.66602 16.5917 1.66602 13.8334C1.66602 12.1804 2.47701 10.712 3.71777 9.8036C3.96259 9.62436 4.29847 9.74408 4.4366 10.0142C5.23223 11.5703 6.65867 12.7333 8.34935 13.1917C8.87435 13.3417 9.42435 13.4167 9.99935 13.4167C10.3734 13.4167 10.7329 13.384 11.0827 13.3235C11.3718 13.2734 11.6591 13.4581 11.6652 13.7514C11.6657 13.7788 11.666 13.8062 11.666 13.8334Z"/>
</mask>
<path d="M11.666 13.8334C11.666 15.3084 11.0243 16.6417 9.99935 17.55C9.11602 18.35 7.94935 18.8334 6.66602 18.8334C3.90768 18.8334 1.66602 16.5917 1.66602 13.8334C1.66602 12.1804 2.47701 10.712 3.71777 9.8036C3.96259 9.62436 4.29847 9.74408 4.4366 10.0142C5.23223 11.5703 6.65867 12.7333 8.34935 13.1917C8.87435 13.3417 9.42435 13.4167 9.99935 13.4167C10.3734 13.4167 10.7329 13.384 11.0827 13.3235C11.3718 13.2734 11.6591 13.4581 11.6652 13.7514C11.6657 13.7788 11.666 13.8062 11.666 13.8334Z" fill="#667185"/>
<path d="M9.99935 17.55L9.0045 16.4274L8.99844 16.4328L8.99243 16.4382L9.99935 17.55ZM8.34935 13.1917L8.76143 11.7494L8.75166 11.7466L8.74185 11.744L8.34935 13.1917ZM11.6652 13.7514L10.1655 13.7825L11.6652 13.7514ZM4.4366 10.0142L3.10105 10.6971L4.4366 10.0142ZM10.166 13.8334C10.166 14.8663 9.718 15.7951 9.0045 16.4274L10.9942 18.6727C12.3307 17.4883 13.166 15.7505 13.166 13.8334H10.166ZM8.99243 16.4382C8.37513 16.9973 7.56412 17.3334 6.66602 17.3334V20.3334C8.33458 20.3334 9.85691 19.7028 11.0063 18.6618L8.99243 16.4382ZM6.66602 17.3334C4.73611 17.3334 3.16602 15.7633 3.16602 13.8334H0.166016C0.166016 17.4201 3.07926 20.3334 6.66602 20.3334V17.3334ZM3.16602 13.8334C3.16602 12.6822 3.72952 11.654 4.60387 11.0139L2.83167 8.5933C1.22449 9.76998 0.166016 11.6785 0.166016 13.8334H3.16602ZM3.10105 10.6971C4.08804 12.6275 5.85566 14.0698 7.95685 14.6394L8.74185 11.744C7.46167 11.3969 6.37641 10.5132 5.77215 9.33137L3.10105 10.6971ZM7.93727 14.634C8.60322 14.8243 9.29238 14.9167 9.99935 14.9167V11.9167C9.55631 11.9167 9.14548 11.8591 8.76143 11.7494L7.93727 14.634ZM9.99935 14.9167C10.4618 14.9167 10.907 14.8762 11.3386 14.8015L10.8268 11.8454C10.5589 11.8918 10.285 11.9167 9.99935 11.9167V14.9167ZM10.1655 13.7825C10.1658 13.7996 10.166 13.8166 10.166 13.8334H13.166C13.166 13.7957 13.1656 13.7581 13.1648 13.7204L10.1655 13.7825ZM11.3386 14.8015C11.102 14.8424 10.8414 14.7936 10.6162 14.635C10.3741 14.4644 10.1733 14.1585 10.1655 13.7825L13.1648 13.7204C13.1351 12.2848 11.7847 11.6796 10.8268 11.8454L11.3386 14.8015ZM4.60387 11.0139C4.30326 11.234 3.94407 11.258 3.66884 11.1718C3.41144 11.0912 3.21286 10.9158 3.10105 10.6971L5.77215 9.33137C5.31544 8.43815 3.99141 7.74422 2.83167 8.5933L4.60387 11.0139Z" fill="#667185" mask="url(#path-1-inside-1_1888_10122)"/>
<path d="M15 7.16675C15 7.81675 14.875 8.44175 14.65 9.00841C14.075 10.4584 12.8417 11.5751 11.3167 11.9917C10.9 12.1084 10.4583 12.1667 10 12.1667C9.54167 12.1667 9.1 12.1084 8.68333 11.9917C7.15833 11.5751 5.925 10.4584 5.35 9.00841C5.125 8.44175 5 7.81675 5 7.16675C5 4.40841 7.24167 2.16675 10 2.16675C12.7583 2.16675 15 4.40841 15 7.16675Z" fill="#667185"/>
<path d="M18.3327 13.8334C18.3327 16.5917 16.091 18.8334 13.3327 18.8334C12.7529 18.8334 12.1937 18.7346 11.6753 18.5515C11.3538 18.4379 11.2941 18.0299 11.511 17.7669C12.4158 16.6699 12.916 15.2825 12.916 13.8334C12.916 13.55 12.891 13.2667 12.8493 13C12.8246 12.8463 12.903 12.6952 13.0392 12.6198C14.115 12.0243 14.9983 11.1197 15.5623 10.0151C15.7004 9.74462 16.0365 9.6246 16.2815 9.80402C17.5219 10.7125 18.3327 12.1806 18.3327 13.8334Z" fill="#667185"/>
</svg>
