<svg width="70" height="70" viewBox="0 0 70 70" fill="none" xmlns="http://www.w3.org/2000/svg">
<rect x="1.75" y="1.75" width="66.5" height="66.5" rx="33.25" fill="#C5D5F8"/>
<rect x="1.75" y="1.75" width="66.5" height="66.5" rx="33.25" stroke="#3957D7" stroke-width="3.5"/>
<path d="M8.728 36.68C8.728 31.248 12.564 27.524 17.576 27.524C22.784 27.524 25.668 30.8 25.976 35.252L22.616 35.392C22.364 32.76 20.796 30.604 17.576 30.604C14.44 30.604 12.368 32.956 12.368 36.68C12.368 40.404 14.44 42.756 17.576 42.756C20.796 42.756 22.364 40.6 22.616 37.968L25.976 38.108C25.668 42.588 22.784 45.836 17.576 45.836C12.564 45.836 8.728 42.112 8.728 36.68ZM36.8288 45.5H33.1048L26.1328 27.86H29.8008L35.0088 41.244H35.1208L40.2728 27.86H43.7728L36.8288 45.5ZM54.821 45.5H51.097L44.125 27.86H47.793L53.001 41.244H53.113L58.265 27.86H61.765L54.821 45.5Z" fill="black"/>
</svg>
