<svg width="56" height="56" viewBox="0 0 56 56" fill="none" xmlns="http://www.w3.org/2000/svg">
<path d="M23.3333 30.3333H9.33333C8.71449 30.3333 8.121 30.5792 7.68342 31.0168C7.24583 31.4543 7 32.0478 7 32.6667V46.6667C7 47.2855 7.24583 47.879 7.68342 48.3166C8.121 48.7542 8.71449 49 9.33333 49H23.3333C23.9522 49 24.5457 48.7542 24.9832 48.3166C25.4208 47.879 25.6667 47.2855 25.6667 46.6667V32.6667C25.6667 32.0478 25.4208 31.4543 24.9832 31.0168C24.5457 30.5792 23.9522 30.3333 23.3333 30.3333ZM21 44.3333H11.6667V35H21V44.3333ZM46.6667 7H32.6667C32.0478 7 31.4543 7.24583 31.0168 7.68342C30.5792 8.121 30.3333 8.71449 30.3333 9.33333V23.3333C30.3333 23.9522 30.5792 24.5457 31.0168 24.9832C31.4543 25.4208 32.0478 25.6667 32.6667 25.6667H46.6667C47.2855 25.6667 47.879 25.4208 48.3166 24.9832C48.7542 24.5457 49 23.9522 49 23.3333V9.33333C49 8.71449 48.7542 8.121 48.3166 7.68342C47.879 7.24583 47.2855 7 46.6667 7ZM44.3333 21H35V11.6667H44.3333V21ZM46.6667 37.3333H42V32.6667C42 32.0478 41.7542 31.4543 41.3166 31.0168C40.879 30.5792 40.2855 30.3333 39.6667 30.3333C39.0478 30.3333 38.4543 30.5792 38.0167 31.0168C37.5792 31.4543 37.3333 32.0478 37.3333 32.6667V37.3333H32.6667C32.0478 37.3333 31.4543 37.5792 31.0168 38.0167C30.5792 38.4543 30.3333 39.0478 30.3333 39.6667C30.3333 40.2855 30.5792 40.879 31.0168 41.3166C31.4543 41.7542 32.0478 42 32.6667 42H37.3333V46.6667C37.3333 47.2855 37.5792 47.879 38.0167 48.3166C38.4543 48.7542 39.0478 49 39.6667 49C40.2855 49 40.879 48.7542 41.3166 48.3166C41.7542 47.879 42 47.2855 42 46.6667V42H46.6667C47.2855 42 47.879 41.7542 48.3166 41.3166C48.7542 40.879 49 40.2855 49 39.6667C49 39.0478 48.7542 38.4543 48.3166 38.0167C47.879 37.5792 47.2855 37.3333 46.6667 37.3333ZM23.3333 7H9.33333C8.71449 7 8.121 7.24583 7.68342 7.68342C7.24583 8.121 7 8.71449 7 9.33333V23.3333C7 23.9522 7.24583 24.5457 7.68342 24.9832C8.121 25.4208 8.71449 25.6667 9.33333 25.6667H23.3333C23.9522 25.6667 24.5457 25.4208 24.9832 24.9832C25.4208 24.5457 25.6667 23.9522 25.6667 23.3333V9.33333C25.6667 8.71449 25.4208 8.121 24.9832 7.68342C24.5457 7.24583 23.9522 7 23.3333 7ZM21 21H11.6667V11.6667H21V21Z" fill="#6563FF"/>
</svg>
