<svg width="26" height="22" viewBox="0 0 26 22" fill="none" xmlns="http://www.w3.org/2000/svg">
<path d="M23.9668 0.229004H2.03331C0.79 0.229004 -0.21875 1.23782 -0.21875 2.48113V19.5188C-0.21875 20.7622 0.79 21.7709 2.03331 21.7709H23.9668C25.2102 21.7709 26.2189 20.7621 26.2189 19.5188V2.48113C26.2189 1.23775 25.2101 0.229004 23.9668 0.229004Z" fill="#0353A5"/>
<path d="M15.0149 18.9314H10.7782C5.79542 18.9314 2.13086 15.7297 2.13086 11.1378C2.13086 6.11166 5.79542 3.06885 10.7782 3.06885H15.0149C19.9413 3.06885 23.8684 6.11166 23.8684 11.1378C23.8684 15.7298 19.9413 18.9314 15.0149 18.9314Z" fill="white"/>
<path d="M10.7928 5.14648C7.54172 5.14648 4.89453 7.78361 4.89453 11.0447C4.89453 14.2957 7.54172 16.943 10.7928 16.943C14.054 16.943 16.691 14.2958 16.691 11.0447C16.691 7.78361 14.054 5.14648 10.7928 5.14648Z" fill="#0068A9"/>
<path d="M9.45409 14.5274C8.05503 13.994 7.05859 12.6351 7.05859 11.0449C7.05859 9.45456 8.05503 8.09575 9.45409 7.55225V14.5274Z" fill="white"/>
<path d="M12.1309 14.5371V7.55176C13.53 8.09532 14.5264 9.45407 14.5264 11.0444C14.5264 12.6346 13.5299 13.9935 12.1309 14.5371Z" fill="white"/>
</svg>
