<svg width="126" height="50" viewBox="0 0 126 50" fill="none" xmlns="http://www.w3.org/2000/svg">
<path fill-rule="evenodd" clip-rule="evenodd" d="M18.4238 35.8586C18.4238 35.4148 18.7764 35.0509 19.2182 35.009C19.725 34.961 20.1738 35.35 20.1738 35.8591V47.368C20.1738 48.3369 20.9593 49.1223 21.9282 49.1223C22.8971 49.1223 23.6826 48.3369 23.6826 47.368V34.5583C23.6826 34.2128 23.8995 33.9048 24.2189 33.7733C24.7893 33.5385 25.4403 33.943 25.4403 34.5598V42.1062C25.4403 43.0752 26.2257 43.8606 27.1946 43.8606C28.1635 43.8606 28.949 43.0751 28.949 42.1062V31.2402C28.949 31.0084 29.0511 30.789 29.2239 30.6346C29.7691 30.1478 30.7022 30.5149 30.7022 31.2458V48.2456C30.7022 49.2145 31.4877 49.9999 32.4566 49.9999C33.4255 49.9999 34.2109 49.2145 34.2109 48.2456V25.5145C34.2109 23.8721 34.5291 22.2502 34.8164 20.6332C34.9945 19.6303 35.0875 18.598 35.0875 17.544C35.0875 7.85469 27.2329 0 17.5437 0C7.8546 0 0 7.85469 0 17.544C0 20.9762 0.985614 24.1783 2.68925 26.8826C3.6625 28.4275 4.38574 30.1559 4.38574 31.9818V37.72C4.38574 38.6889 5.1712 39.4744 6.14011 39.4744C7.10902 39.4744 7.89448 38.6889 7.89448 37.72V33.7214C7.89448 33.0684 8.62539 32.6693 9.1996 32.9803C9.47164 33.1277 9.64767 33.4099 9.64767 33.7193V47.3678C9.64767 48.3368 10.4331 49.1222 11.402 49.1222C12.371 49.1222 13.1564 48.3367 13.1564 47.3678V35.6116C13.1564 35.0662 13.668 34.6671 14.2035 34.7703C14.6091 34.8485 14.915 35.1978 14.915 35.6109V36.8421C14.915 37.811 15.7005 38.5965 16.6694 38.5965C17.6383 38.5965 18.4238 37.811 18.4238 36.8421V35.8586Z" fill="#4169E1"/>
<path fill-rule="evenodd" clip-rule="evenodd" d="M26.6476 17.0617C26.9377 17.0617 27.17 16.8165 27.1398 16.5279C27.1136 16.2781 26.899 16.0968 26.6479 16.0968H20.0284C19.0939 16.0968 18.7051 14.9012 19.4609 14.3515C19.6258 14.2316 19.8245 14.167 20.0284 14.167H25.8466C26.2042 14.167 26.4504 13.8092 26.2999 13.485C26.2184 13.3096 26.0408 13.2021 25.8475 13.2021H17.1337C16.1992 13.2021 15.8104 12.0064 16.5661 11.4568C16.7311 11.3368 16.9298 11.2722 17.1337 11.2722H23.7219C24.1758 11.2722 24.4093 10.7492 24.0753 10.4419C23.98 10.3542 23.8545 10.3073 23.725 10.3073H20.5109C19.5764 10.3073 19.1876 9.11168 19.9433 8.56203L20.1823 8.3882C20.1919 8.38123 20.2035 8.37747 20.2153 8.37747C20.2791 8.37747 20.2922 8.29192 20.231 8.2742C19.3779 8.02732 18.4762 7.89501 17.5436 7.89501C12.2146 7.89501 7.89453 12.2151 7.89453 17.5442C7.89453 22.8733 12.2146 27.1934 17.5436 27.1934C17.9994 27.1934 18.4478 27.1618 18.8868 27.1006C20.8287 26.8301 20.2593 24.7811 18.2987 24.7811H14.7214C13.7869 24.7811 13.3981 23.5854 14.1539 23.0358C14.3188 22.9158 14.5175 22.8512 14.7214 22.8512H25.3257C25.4991 22.8512 25.6614 22.7652 25.7527 22.6178C25.955 22.291 25.7089 21.8863 25.3245 21.8863H20.0284C19.0939 21.8863 18.7051 20.6907 19.4609 20.141C19.6258 20.0211 19.8245 19.9565 20.0284 19.9565H26.4944C26.7264 19.9565 26.9301 19.8014 26.9787 19.5745C27.0438 19.2704 26.805 18.9916 26.494 18.9916H14.239C13.3045 18.9916 12.9157 17.7959 13.6714 17.2463C13.8364 17.1263 14.035 17.0617 14.239 17.0617H26.6476ZM12.0604 12.7406C11.6783 12.2629 10.9369 12.3128 10.6221 12.8374C10.271 13.4225 10.6925 14.167 11.3749 14.167C12.111 14.167 12.5203 13.3155 12.0604 12.7406Z" fill="white"/>
<path d="M53.5679 34.4H57.3479C62.1359 34.4 64.8359 31.52 64.8359 26.624C64.8359 21.8 62.1359 18.92 57.3479 18.92H53.5679V34.4ZM49.0679 38V15.32H57.6359C64.9439 15.32 69.4799 19.568 69.4799 26.66C69.4799 33.752 64.9439 38 57.6359 38H49.0679ZM72.3028 22.124H76.6228V38H72.3028V22.124ZM72.2308 19.532V15.32H76.6588V19.532H72.2308ZM84.5321 29.756V30.368C84.5321 33.284 86.2601 35.048 88.7081 35.048C91.4441 35.048 92.8481 33.068 92.8481 30.08C92.8481 27.056 91.4441 25.076 88.7081 25.076C86.2601 25.076 84.5321 26.876 84.5321 29.756ZM84.5681 34.976V43.904H80.2481V22.124H84.5681V25.184C85.2881 23.24 87.1961 21.692 90.0401 21.692C94.7201 21.692 97.2041 25.4 97.2041 30.08C97.2041 34.76 94.7201 38.432 90.0401 38.432C87.1961 38.432 85.2881 36.884 84.5681 34.976ZM99.9356 15.32H104.256V38H99.9356V15.32ZM111.301 30.08C111.301 33.068 112.669 35.156 115.297 35.156C117.961 35.156 119.329 33.068 119.329 30.08C119.329 27.056 117.961 24.968 115.297 24.968C112.669 24.968 111.301 27.056 111.301 30.08ZM123.685 30.08C123.685 35.012 120.229 38.432 115.297 38.432C110.401 38.432 106.945 35.012 106.945 30.08C106.945 25.148 110.401 21.692 115.297 21.692C120.229 21.692 123.685 25.148 123.685 30.08Z" fill="black"/>
</svg>
