<svg width="28" height="22" viewBox="0 0 28 22" fill="none" xmlns="http://www.w3.org/2000/svg">
<path d="M25.2972 8.05848C25.2972 7.67054 25.0299 7.46429 24.5389 7.46429H24.3007V8.68705H24.5292C25.0299 8.68705 25.2972 8.47098 25.2972 8.05848ZM25.6667 0H2.33333C1.04514 0 0 1.0558 0 2.35714V19.6429C0 20.9442 1.04514 22 2.33333 22H25.6667C26.9549 22 28 20.9442 28 19.6429V2.35714C28 1.0558 26.9549 0 25.6667 0ZM23.5229 6.82098C24.6215 6.82098 26.0944 6.61964 26.0944 8.0192C26.0944 8.63795 25.7736 9.03571 25.1854 9.15848L26.4396 10.8478H25.4868L24.4076 9.23705H24.3007V10.8478H23.5229V6.82098ZM20.8056 6.82589H23.0076V7.51339H21.5833V8.40714H22.959V9.08482H21.5833V10.175H23.0076V10.8527H20.8056V6.82589ZM17.466 6.82589L18.5306 9.53661L19.6097 6.82589H20.4604L18.7347 10.9607H18.3167L16.6153 6.82589H17.466ZM14.7486 6.67857C15.9493 6.67857 16.9167 7.66071 16.9167 8.86875C16.9167 10.0817 15.9444 11.0589 14.7486 11.0589C13.5479 11.0589 12.5806 10.0768 12.5806 8.86875C12.5806 7.6558 13.5528 6.67857 14.7486 6.67857ZM12.3521 6.97813V7.91116C11.375 6.92411 10.0771 7.68036 10.0771 8.8442C10.0771 10.0719 11.4139 10.7348 12.3521 9.78705V10.7201C10.9083 11.4223 9.275 10.4402 9.275 8.8442C9.275 7.31205 10.884 6.24152 12.3521 6.97813ZM7.62708 10.2339C8.18125 10.2339 8.71597 9.48259 7.46667 9.03571C6.7375 8.76562 6.48472 8.47589 6.48472 7.92098C6.48472 6.7817 7.97222 6.37902 8.90069 7.21875L8.49236 7.74911C7.98681 7.17946 7.28194 7.44464 7.28194 7.87187C7.28194 8.08795 7.41319 8.21071 7.87986 8.37768C8.76458 8.70179 9.02708 8.99152 9.02708 9.63482C9.02708 11.0835 7.14097 11.4714 6.27569 10.1897L6.77639 9.70357C6.95625 10.0522 7.25764 10.2339 7.62708 10.2339ZM2.69306 10.8527H1.55556V6.82589H2.69306C3.96181 6.82589 4.83681 7.66071 4.83681 8.8442C4.83681 9.75268 4.19514 10.8527 2.69306 10.8527ZM5.97431 10.8527H5.19653V6.82589H5.97431V10.8527ZM26.4444 19.692C26.4444 20.0946 26.1139 20.4286 25.7153 20.4286H6.22222C15.4389 18.6804 24.8257 13.5929 26.4444 12.5714V19.692ZM3.60208 7.8375C3.34931 7.59688 3.03819 7.51339 2.5375 7.51339H2.33333V10.175H2.5375C3.03819 10.175 3.36389 10.0768 3.60208 9.86071C3.87917 9.60536 4.03472 9.23214 4.03472 8.8442C4.03472 8.45625 3.87917 8.08304 3.60208 7.8375Z" fill="#0353A5"/>
</svg>
