<svg width="20" height="16" viewBox="0 0 20 16" fill="none" xmlns="http://www.w3.org/2000/svg">
<path fill-rule="evenodd" clip-rule="evenodd" d="M15.8342 15.5C17.6752 15.5 19.1675 14.0076 19.1675 12.1667V4.68557C19.1678 4.67283 19.1678 4.66005 19.1675 4.64725V3.83333C19.1675 1.99238 17.6752 0.5 15.8342 0.5H4.16754C2.32659 0.5 0.834206 1.99238 0.834206 3.83333V4.64726C0.83391 4.66005 0.833911 4.67282 0.834206 4.68556V12.1667C0.834206 14.0076 2.32659 15.5 4.16754 15.5H15.8342ZM2.50087 12.1667C2.50087 13.0871 3.24706 13.8333 4.16754 13.8333H15.8342C16.7547 13.8333 17.5009 13.0871 17.5009 12.1667V5.89753L11.2388 8.40234C10.4441 8.72022 9.55761 8.72022 8.7629 8.40234L2.50087 5.89753V12.1667ZM10.6199 6.85488L17.5009 4.10247V3.83333C17.5009 2.91286 16.7547 2.16667 15.8342 2.16667H4.16754C3.24706 2.16667 2.50087 2.91286 2.50087 3.83333V4.10247L9.38189 6.85488C9.77924 7.01382 10.2225 7.01382 10.6199 6.85488Z" fill="#667185"/>
</svg>
