<svg width="14" height="18" viewBox="0 0 14 18" fill="none" xmlns="http://www.w3.org/2000/svg">
<path d="M12.0007 6.08333H11.1673V4.41667C11.1673 2.11667 9.30065 0.25 7.00065 0.25C4.70065 0.25 2.83398 2.11667 2.83398 4.41667V6.08333H2.00065C1.08398 6.08333 0.333984 6.83333 0.333984 7.75V16.0833C0.333984 17 1.08398 17.75 2.00065 17.75H12.0007C12.9173 17.75 13.6673 17 13.6673 16.0833V7.75C13.6673 6.83333 12.9173 6.08333 12.0007 6.08333ZM4.50065 4.41667C4.50065 3.03333 5.61732 1.91667 7.00065 1.91667C8.38398 1.91667 9.50065 3.03333 9.50065 4.41667V6.08333H4.50065V4.41667ZM12.0007 16.0833H2.00065V7.75H12.0007V16.0833ZM7.00065 13.5833C7.91732 13.5833 8.66732 12.8333 8.66732 11.9167C8.66732 11 7.91732 10.25 7.00065 10.25C6.08398 10.25 5.33398 11 5.33398 11.9167C5.33398 12.8333 6.08398 13.5833 7.00065 13.5833Z" fill="#667185"/>
</svg>
