<svg width="88" height="72" viewBox="0 0 88 72" fill="none" xmlns="http://www.w3.org/2000/svg">
<path d="M7.875 14.625C7.875 14.0062 8.38125 13.5 9 13.5H78.75C79.3688 13.5 79.875 14.0062 79.875 14.625V57.375C79.875 57.9938 79.3688 58.5 78.75 58.5H9C8.38125 58.5 7.875 57.9938 7.875 57.375V14.625Z" fill="#D9D9D9"/>
<mask id="mask0_1684_13424" style="mask-type:luminance" maskUnits="userSpaceOnUse" x="7" y="13" width="73" height="46">
<path d="M7.875 14.625C7.875 14.0062 8.38125 13.5 9 13.5H78.75C79.3688 13.5 79.875 14.0062 79.875 14.625V57.375C79.875 57.9938 79.3688 58.5 78.75 58.5H9C8.38125 58.5 7.875 57.9938 7.875 57.375V14.625Z" fill="white"/>
</mask>
<g mask="url(#mask0_1684_13424)">
<path d="M7.875 14.625C7.875 14.0062 8.38125 13.5 9 13.5H78.75C79.3688 13.5 79.875 14.0062 79.875 14.625V57.375C79.875 57.9938 79.3688 58.5 78.75 58.5H9C8.38125 58.5 7.875 57.9938 7.875 57.375V14.625Z" fill="#C5D5F8" stroke="#CBCBCB" stroke-width="2" stroke-miterlimit="10"/>
</g>
<mask id="mask1_1684_13424" style="mask-type:luminance" maskUnits="userSpaceOnUse" x="10" y="19" width="67" height="10">
<path d="M10.8555 20.0811C10.8555 19.7436 11.0805 19.5186 11.418 19.5186H76.2742C76.6117 19.5186 76.8367 19.7436 76.8367 20.0811V27.9561C76.8367 28.2936 76.6117 28.5186 76.2742 28.5186H11.418C11.0805 28.5186 10.8555 28.2936 10.8555 27.9561V20.0811Z" fill="white"/>
</mask>
<g mask="url(#mask1_1684_13424)">
<path d="M79.6492 16.7061H8.04297V31.3311H79.6492V16.7061Z" fill="black"/>
</g>
<path d="M70.8758 34.4814H18.3945V50.2314H70.8758V34.4814Z" fill="white"/>
<mask id="mask2_1684_13424" style="mask-type:luminance" maskUnits="userSpaceOnUse" x="18" y="34" width="53" height="17">
<path d="M70.8758 34.4814H18.3945V50.2314H70.8758V34.4814Z" fill="white"/>
</mask>
<g mask="url(#mask2_1684_13424)">
<path d="M70.8758 34.4814H18.3945V50.2314H70.8758V34.4814Z" fill="white" stroke="#039BB7" stroke-width="2" stroke-miterlimit="10"/>
</g>
<mask id="mask3_1684_13424" style="mask-type:luminance" maskUnits="userSpaceOnUse" x="23" y="38" width="44" height="9">
<path d="M63.8445 42.3561C64.407 42.3561 64.8008 41.9623 64.8008 41.2873C64.8008 40.6123 64.407 40.2186 63.8445 40.2186C63.282 40.2186 62.8883 40.6123 62.8883 41.2873C62.8883 41.9623 63.282 42.3561 63.8445 42.3561ZM62.4945 46.5186L64.0695 43.4248C63.9008 43.4811 63.6758 43.5373 63.507 43.5373C62.4945 43.5373 61.5383 42.6936 61.5383 41.3436C61.5383 39.8811 62.5508 39.0373 63.8445 39.0373C65.1383 39.0373 66.1508 39.8811 66.1508 41.3436C66.1508 41.9061 66.0383 42.3561 65.5883 43.2561L63.957 46.5748H62.4945V46.5186ZM57.7133 42.0748C58.2758 42.0748 58.6133 41.6811 58.6133 41.1186C58.6133 40.5561 58.2195 40.1623 57.7133 40.1623C57.1508 40.1623 56.757 40.5561 56.757 41.1186C56.757 41.6811 57.1508 42.0748 57.7133 42.0748ZM57.7133 45.3373C58.2758 45.3373 58.7258 44.8873 58.7258 44.3248C58.7258 43.7623 58.2758 43.3123 57.7133 43.3123C57.1508 43.3123 56.7008 43.7623 56.7008 44.3248C56.6445 44.8873 57.0945 45.3373 57.7133 45.3373ZM57.7133 46.5748C56.3633 46.5748 55.2945 45.7873 55.2945 44.3248C55.2945 43.4248 55.8008 42.9186 56.2508 42.6373C55.857 42.3561 55.407 41.9061 55.407 41.0623C55.407 39.7686 56.4758 38.9248 57.7133 38.9248C58.9508 38.9248 60.0195 39.7686 60.0195 41.0623C60.0195 41.8498 59.5695 42.3561 59.1758 42.6373C59.5695 42.9186 60.132 43.4248 60.132 44.3248C60.0758 45.7873 59.007 46.5748 57.7133 46.5748ZM51.582 42.3561C52.1445 42.3561 52.5383 41.9623 52.5383 41.2873C52.5383 40.6123 52.1445 40.2186 51.582 40.2186C51.0195 40.2186 50.6258 40.6123 50.6258 41.2873C50.6258 41.9623 50.9633 42.3561 51.582 42.3561ZM50.232 46.5186L51.807 43.4248C51.6383 43.4811 51.4133 43.5373 51.2445 43.5373C50.232 43.5373 49.2758 42.6936 49.2758 41.3436C49.2758 39.8811 50.2883 39.0373 51.582 39.0373C52.8758 39.0373 53.8883 39.8811 53.8883 41.3436C53.8883 41.9061 53.7758 42.3561 53.3258 43.2561L51.6945 46.5748H50.232V46.5186ZM43.2008 39.0373H42.2445L42.3008 40.3311L41.1758 39.5998L40.6695 40.4436L41.8508 41.0623L40.6695 41.6811L41.1758 42.5248L42.3008 41.7936L42.2445 43.0873H43.2008L43.1445 41.7936L44.2695 42.5248L44.7758 41.6811L43.5945 41.0623L44.7758 40.4436L44.2695 39.5998L43.1445 40.3311L43.2008 39.0373ZM37.4633 39.0373H36.507L36.5633 40.3311L35.4383 39.5998L34.932 40.4436L36.1133 41.0623L34.932 41.6811L35.4383 42.5248L36.5633 41.7936L36.507 43.0873H37.4633L37.407 41.7936L38.532 42.5248L39.0383 41.6811L37.857 41.0623L39.0383 40.4436L38.532 39.5998L37.407 40.3311L37.4633 39.0373ZM31.7258 39.0373H30.7695L30.8258 40.3311L29.7008 39.5998L29.2508 40.4436L30.3758 41.0623L29.2508 41.6811L29.757 42.5248L30.882 41.7936L30.8258 43.0873H31.782L31.7258 41.7936L32.8508 42.5248L33.357 41.6811L32.1195 41.0623L33.3008 40.4436L32.7945 39.5998L31.6695 40.3311L31.7258 39.0373ZM25.9883 39.0373H25.032L25.0883 40.3311L23.9633 39.5998L23.457 40.4436L24.6383 41.0623L23.457 41.6811L23.9633 42.5248L25.0883 41.7936L25.032 43.0873H25.9883L25.932 41.7936L27.057 42.5248L27.5633 41.6811L26.382 41.0623L27.5633 40.4436L27.057 39.5998L25.932 40.3311L25.9883 39.0373Z" fill="white"/>
</mask>
<g mask="url(#mask3_1684_13424)">
<path d="M69.0199 36.1685H20.7012V49.3872H69.0199V36.1685Z" fill="black"/>
</g>
</svg>
