<svg width="20" height="20" viewBox="0 0 20 20" fill="none" xmlns="http://www.w3.org/2000/svg">
<path d="M15.0007 7.08333H14.1673V5.41667C14.1673 3.11667 12.3007 1.25 10.0007 1.25C7.70065 1.25 5.83398 3.11667 5.83398 5.41667V7.08333H5.00065C4.08398 7.08333 3.33398 7.83333 3.33398 8.75V17.0833C3.33398 18 4.08398 18.75 5.00065 18.75H15.0007C15.9173 18.75 16.6673 18 16.6673 17.0833V8.75C16.6673 7.83333 15.9173 7.08333 15.0007 7.08333ZM7.50065 5.41667C7.50065 4.03333 8.61732 2.91667 10.0007 2.91667C11.384 2.91667 12.5007 4.03333 12.5007 5.41667V7.08333H7.50065V5.41667ZM15.0007 17.0833H5.00065V8.75H15.0007V17.0833ZM10.0007 14.5833C10.9173 14.5833 11.6673 13.8333 11.6673 12.9167C11.6673 12 10.9173 11.25 10.0007 11.25C9.08398 11.25 8.33398 12 8.33398 12.9167C8.33398 13.8333 9.08398 14.5833 10.0007 14.5833Z" fill="#4169E1"/>
</svg>
