<svg width="29" height="22" viewBox="0 0 29 22" fill="none" xmlns="http://www.w3.org/2000/svg">
<path fill-rule="evenodd" clip-rule="evenodd" d="M28.6992 20.823C28.6992 21.4708 28.2783 22 27.7628 22H1.63553C1.1201 22 0.699219 21.4708 0.699219 20.823V1.17712C0.699219 0.529163 1.1201 0 1.63553 0H27.7629C28.2783 0 28.6992 0.529163 28.6992 1.17712V20.823H28.6992Z" fill="#0353A5"/>
<path fill-rule="evenodd" clip-rule="evenodd" d="M18.9088 17.3117L19.2089 17.3054L19.5093 17.2855L19.8031 17.2389L20.091 17.1861L20.3727 17.1133L20.6543 17.0343L20.9238 16.9282L21.1933 16.8161L21.4502 16.69L21.7013 16.5513L21.9466 16.399L22.1855 16.2341L22.4182 16.0556L22.6387 15.8703L22.8467 15.672L23.0546 15.46L23.2447 15.2418L23.4288 15.0105L23.6061 14.7723L23.7714 14.5279L23.9184 14.2699L24.0657 14.0056L24.1879 13.7345L24.3105 13.4502L24.4147 13.1656L24.5067 12.8683L24.5863 12.5705L24.6533 12.2664L24.7026 11.9488L24.7394 11.6383L24.7636 11.3139L24.7696 10.9903L24.7636 10.6659L24.7394 10.3419L24.7026 10.0311L24.6533 9.72073L24.5863 9.41611L24.5067 9.1189L24.4147 8.82102L24.3105 8.53686L24.1879 8.25893L24.0657 7.9879L23.9184 7.72346L23.7714 7.46555L23.6061 7.22107L23.4288 6.98296L23.2447 6.7516L23.0546 6.53336L22.8467 6.32825L22.6387 6.12989L22.4182 5.93835L22.1855 5.76616L21.9466 5.60073L21.7013 5.44893L21.4502 5.30974L21.1933 5.18413L20.9238 5.07208L20.6543 4.97271L20.3727 4.88684L20.091 4.81409L19.8031 4.76122L19.5093 4.72148L19.2089 4.69486L18.9088 4.68848L18.6088 4.69486L18.3151 4.72148L18.0208 4.76122L17.7334 4.81409L17.4513 4.88684L17.1697 4.97271L16.8999 5.07208L16.6367 5.18413L16.3794 5.30974L16.1283 5.44893L15.8836 5.60073L15.6446 5.76616L15.4182 5.93835L15.1972 6.12989L14.983 6.32825L14.7813 6.53336L14.5849 6.7516L14.4076 6.98296L14.2297 7.22107L14.0707 7.46555L13.9175 7.72346L13.777 7.9879L13.6481 8.25893L13.5317 8.53686L13.4275 8.82102L13.3359 9.1189L13.2564 9.41611L13.1886 9.72073L13.14 10.0311L13.1032 10.3419L13.0785 10.6659L13.0723 10.9903L13.0785 11.3139L13.1032 11.6383L13.14 11.9488L13.1886 12.2664L13.2564 12.5705L13.3359 12.8683L13.4275 13.1656L13.5317 13.4502L13.6481 13.7345L13.777 14.0056L13.9175 14.2699L14.0707 14.5279L14.2297 14.7723L14.4076 15.0105L14.5849 15.2418L14.7813 15.46L14.983 15.672L15.1972 15.8703L15.4182 16.0556L15.6446 16.2341L15.8836 16.399L16.1283 16.5513L16.3794 16.69L16.6367 16.8161L16.8999 16.9282L17.1697 17.0343L17.4513 17.1133L17.7334 17.1861L18.0208 17.2389L18.3151 17.2855L18.6088 17.3054L18.9088 17.3117Z" fill="#FBB230"/>
<path fill-rule="evenodd" clip-rule="evenodd" d="M11.0892 17.3117L11.3892 17.3054L11.683 17.2855L11.9772 17.2389L12.2647 17.1861L12.5467 17.1133L12.8287 17.0343L13.0979 16.9282L13.361 16.8161L13.6185 16.69L13.8694 16.5513L14.1144 16.399L14.3532 16.2341L14.5796 16.0556L14.8006 15.8703L15.0149 15.672L15.2165 15.46L15.4129 15.2418L15.5907 15.0105L15.7682 14.7723L15.9271 14.5279L16.0803 14.2699L16.2209 14.0056L16.3499 13.7345L16.4662 13.4502L16.5704 13.1656L16.662 12.8683L16.7419 12.5705L16.8093 12.2664L16.8579 11.9488L16.8946 11.6383L16.9194 11.3139L16.9256 10.9903L16.9194 10.6659L16.8946 10.3419L16.8579 10.0311L16.8093 9.72073L16.7419 9.41611L16.662 9.1189L16.5704 8.82102L16.4662 8.53686L16.3499 8.25893L16.2209 7.9879L16.0803 7.72346L15.9271 7.46555L15.7682 7.22107L15.5907 6.98296L15.4129 6.7516L15.2165 6.53336L15.0149 6.32825L14.8006 6.12989L14.5796 5.93835L14.3532 5.76616L14.1144 5.60073L13.8694 5.44893L13.6185 5.30974L13.361 5.18413L13.0979 5.07208L12.8287 4.97271L12.5467 4.88684L12.2647 4.81409L11.9772 4.76122L11.683 4.72148L11.3892 4.69486L11.0892 4.68848L10.7891 4.69486L10.4887 4.72148L10.1949 4.76122L9.90707 4.81409L9.62583 4.88684L9.34378 4.97271L9.07429 5.07208L8.80473 5.18413L8.54781 5.30974L8.29679 5.44893L8.05148 5.60073L7.81303 5.76616L7.58029 5.93835L7.35943 6.12989L7.1514 6.32825L6.94338 6.53336L6.75342 6.7516L6.56923 6.98296L6.3919 7.22107L6.2266 7.46555L6.07963 7.72346L5.93239 7.9879L5.81014 8.25893L5.68756 8.53686L5.58337 8.82102L5.49176 9.1189L5.41175 9.41611L5.35076 9.72073L5.29541 10.0311L5.25908 10.3419L5.23436 10.6659L5.22852 10.9903L5.23436 11.3139L5.25908 11.6383L5.29541 11.9488L5.35076 12.2664L5.41175 12.5705L5.49176 12.8683L5.58337 13.1656L5.68756 13.4502L5.81014 13.7345L5.93239 14.0056L6.07963 14.2699L6.2266 14.5279L6.3919 14.7723L6.56923 15.0105L6.75342 15.2418L6.94338 15.46L7.1514 15.672L7.35943 15.8703L7.58029 16.0556L7.81303 16.2341L8.05148 16.399L8.29679 16.5513L8.54781 16.69L8.80473 16.8161L9.07429 16.9282L9.34378 17.0343L9.62583 17.1133L9.90707 17.1861L10.1949 17.2389L10.4887 17.2855L10.7891 17.3054L11.0892 17.3117Z" fill="#EB2230"/>
<path fill-rule="evenodd" clip-rule="evenodd" d="M24.8165 10.9106C24.6328 10.6458 24.2349 10.8447 24.1122 11.3403C24.0206 11.6711 24.2043 11.9024 24.388 11.9024C24.7738 11.9025 25.0065 11.2215 24.8165 10.9106Z" fill="#FBB230"/>
<path fill-rule="evenodd" clip-rule="evenodd" d="M21.5339 11.7702C21.5501 11.6477 21.4554 11.5186 21.3319 11.5228C21.2495 11.5256 21.1588 11.5447 21.0744 11.6053C20.8912 11.7372 20.8296 11.9686 21.0443 12.035C21.2276 12.1009 21.5034 11.9686 21.5339 11.7702Z" fill="#FBB230"/>
</svg>
