<svg width="20" height="21" viewBox="0 0 20 21" fill="none" xmlns="http://www.w3.org/2000/svg">
<path d="M16.812 18.9167H3.18762C3.40067 16.1477 6.24705 13.75 9.9998 13.75C13.7526 13.75 16.5989 16.1477 16.812 18.9167Z" fill="#4169E1" stroke="#4169E1" stroke-width="1.5"/>
<path d="M12.529 4.0463L12.5289 4.04632L12.5336 4.05146C13.0836 4.66337 13.4163 5.46224 13.4163 6.33341C13.4163 6.6044 13.3825 6.86338 13.3173 7.1044L13.3127 7.12157L13.3089 7.13893C13.2362 7.46903 13.1024 7.79294 12.9245 8.08701L12.9232 8.08921C12.3267 9.08341 11.2478 9.75008 9.99967 9.75008C9.11958 9.75008 8.33237 9.41711 7.74066 8.87301L7.72862 8.86193L7.71611 8.8514C7.46999 8.64414 7.25778 8.38718 7.08972 8.09812L7.08347 8.08736L7.07686 8.07682C6.76025 7.57159 6.58301 6.97635 6.58301 6.33341C6.58301 5.4103 6.95222 4.562 7.54706 3.94654C8.16625 3.30704 9.03932 2.91675 9.99967 2.91675C11.0057 2.91675 11.9188 3.35479 12.529 4.0463ZM11.533 7.90841V7.85008H11.558C12.4056 7.85008 13.0913 7.1643 13.0913 6.31675C13.0913 5.4692 12.4056 4.78341 11.558 4.78341H11.533C11.5285 3.93971 10.8444 3.25841 9.99967 3.25841C9.15491 3.25841 8.47084 3.93971 8.46636 4.78341H8.44134C7.5938 4.78341 6.90801 5.4692 6.90801 6.31675C6.90801 7.1643 7.5938 7.85008 8.44134 7.85008H8.46634V7.90841C8.46634 8.75596 9.15213 9.44175 9.99967 9.44175C10.8472 9.44175 11.533 8.75596 11.533 7.90841Z" fill="#4169E1" stroke="#4169E1" stroke-width="1.5"/>
</svg>
