<svg width="56" height="56" viewBox="0 0 56 56" fill="none" xmlns="http://www.w3.org/2000/svg">
<path d="M28 14C26.9617 14 25.9466 13.6921 25.0833 13.1152C24.2199 12.5383 23.547 11.7184 23.1496 10.7591C22.7523 9.79978 22.6483 8.74418 22.8509 7.72578C23.0535 6.70738 23.5535 5.77192 24.2877 5.03769C25.0219 4.30347 25.9574 3.80345 26.9758 3.60088C27.9942 3.39831 29.0498 3.50227 30.0091 3.89963C30.9684 4.29699 31.7883 4.9699 32.3652 5.83326C32.9421 6.69662 33.25 7.71165 33.25 8.75C33.25 10.1424 32.6969 11.4777 31.7123 12.4623C30.7277 13.4469 29.3924 14 28 14ZM28 7C27.6539 7 27.3155 7.10264 27.0278 7.29493C26.74 7.48722 26.5157 7.76054 26.3832 8.08031C26.2508 8.40008 26.2161 8.75194 26.2836 9.09141C26.3512 9.43088 26.5178 9.7427 26.7626 9.98744C27.0073 10.2322 27.3191 10.3989 27.6586 10.4664C27.9981 10.5339 28.3499 10.4992 28.6697 10.3668C28.9895 10.2343 29.2628 10.01 29.4551 9.72225C29.6474 9.43446 29.75 9.09612 29.75 8.75C29.75 8.28587 29.5656 7.84075 29.2374 7.51257C28.9093 7.18438 28.4641 7 28 7Z" fill="#0E6AE0"/>
<path d="M33.25 42H22.75C22.2859 42 21.8408 42.1844 21.5126 42.5126C21.1844 42.8408 21 43.2859 21 43.75V45.5C21 47.3565 21.7375 49.137 23.0503 50.4497C24.363 51.7625 26.1435 52.5 28 52.5C29.8565 52.5 31.637 51.7625 32.9497 50.4497C34.2625 49.137 35 47.3565 35 45.5V43.75C35 43.2859 34.8156 42.8408 34.4874 42.5126C34.1592 42.1844 33.7141 42 33.25 42Z" fill="#0EE0BA"/>
<path d="M49.7874 42.1925C47.9698 41.2907 46.4409 39.8981 45.3739 38.1723C44.3069 36.4465 43.7443 34.4565 43.7499 32.4275V26.25C43.7499 22.0728 42.0905 18.0668 39.1368 15.1131C36.1831 12.1594 32.177 10.5 27.9999 10.5C23.8227 10.5 19.8167 12.1594 16.863 15.1131C13.9093 18.0668 12.2499 22.0728 12.2499 26.25V32.4275C12.2554 34.4565 11.6929 36.4465 10.6259 38.1723C9.55884 39.8981 8.02999 41.2907 6.21238 42.1925C5.86361 42.3712 5.5849 42.6617 5.4209 43.0176C5.25689 43.3735 5.21708 43.7742 5.30784 44.1554C5.39861 44.5366 5.6147 44.8763 5.92149 45.1201C6.22828 45.3639 6.60802 45.4977 6.99988 45.5H48.9999C49.3917 45.4977 49.7715 45.3639 50.0783 45.1201C50.3851 44.8763 50.6012 44.5366 50.6919 44.1554C50.7827 43.7742 50.7429 43.3735 50.5789 43.0176C50.4149 42.6617 50.1362 42.3712 49.7874 42.1925Z" fill="#0593FF"/>
</svg>
