<svg width="20" height="21" viewBox="0 0 20 21" fill="none" xmlns="http://www.w3.org/2000/svg">
<path d="M6.79199 6.12508C6.79199 4.35596 8.23121 2.91675 10.0003 2.91675C11.769 2.91675 13.2079 4.35518 13.2087 6.12363C13.2011 7.85941 11.8508 9.25754 10.129 9.32505C10.0423 9.31655 9.9567 9.31746 9.87889 9.32359C8.11768 9.23934 6.79199 7.84199 6.79199 6.12508Z" fill="#4169E1" stroke="#4169E1" stroke-width="1.5"/>
<path d="M6.1852 17.0356L6.18315 17.0343C5.28472 16.4353 4.88379 15.6959 4.88379 14.9833C4.88379 14.2701 5.28532 13.5227 6.19103 12.916C7.21422 12.2393 8.59486 11.8792 10.0109 11.8792C11.4278 11.8792 12.8039 12.2398 13.8178 12.9157C14.7107 13.511 15.1102 14.2499 15.1171 14.9697C15.116 15.6904 14.7141 16.4294 13.8148 17.0362C12.7969 17.7194 11.4178 18.0833 10.0005 18.0833C8.5827 18.0833 7.2032 17.7192 6.1852 17.0356Z" fill="#4169E1" stroke="#4169E1" stroke-width="1.5"/>
</svg>
