<svg width="20" height="21" viewBox="0 0 20 21" fill="none" xmlns="http://www.w3.org/2000/svg">
<path d="M4.29199 6.12508C4.29199 4.35596 5.73121 2.91675 7.50033 2.91675C9.26896 2.91675 10.7079 4.35518 10.7087 6.12363C10.7011 7.85941 9.35081 9.25754 7.62905 9.32505C7.54229 9.31655 7.45671 9.31746 7.37889 9.32359C5.61768 9.23934 4.29199 7.84199 4.29199 6.12508Z" fill="#757575" stroke="#757575" stroke-width="1.5"/>
<path d="M3.6852 17.0356L3.68315 17.0343C2.78472 16.4353 2.38379 15.6959 2.38379 14.9833C2.38379 14.2701 2.78532 13.5227 3.69103 12.916C4.71422 12.2393 6.09486 11.8792 7.51087 11.8792C8.92785 11.8792 10.3039 12.2398 11.3178 12.9157C12.2107 13.511 12.6102 14.2499 12.6171 14.9697C12.616 15.6903 12.2142 16.4293 11.3152 17.036C10.2972 17.7193 8.91795 18.0833 7.50046 18.0833C6.0827 18.0833 4.7032 17.7192 3.6852 17.0356Z" fill="#757575" stroke="#757575" stroke-width="1.5"/>
<path d="M13.7626 9.11179C13.4631 9.11948 13.1808 9.07364 12.9239 8.98355C13.5314 8.13291 13.8466 7.06771 13.7564 5.94011L13.7564 5.94011L13.756 5.93535C13.7166 5.47893 13.6103 5.04557 13.4506 4.64267C13.4641 4.64124 13.4775 4.63992 13.4911 4.63871C14.7116 4.53329 15.8047 5.44417 15.9114 6.67952C16.0101 7.88433 15.1671 8.92894 14.0031 9.09146C13.9783 9.09084 13.8812 9.08905 13.7626 9.11179Z" fill="#757575" stroke="#757575" stroke-width="1.5"/>
<path d="M17.5781 14.2549L17.5781 14.2549L17.5774 14.2633C17.5365 14.7599 17.2195 15.2641 16.5144 15.6506L16.5134 15.6511C16.2078 15.8192 15.8602 15.9515 15.4871 16.0451C15.606 15.7416 15.6827 15.423 15.7133 15.0944L15.7134 15.0944L15.7141 15.0852C15.8187 13.7877 15.2111 12.6049 14.1453 11.7065C15.1391 11.8198 16.0895 12.1673 16.7705 12.7169L16.7715 12.7177C17.3993 13.2227 17.6235 13.7711 17.5781 14.2549Z" fill="#757575" stroke="#757575" stroke-width="1.5"/>
</svg>
