<svg width="32" height="32" viewBox="0 0 32 32" fill="none" xmlns="http://www.w3.org/2000/svg">
<path d="M16.0001 2.66675C12.5067 2.66675 9.66675 5.50675 9.66675 9.00008C9.66675 12.4267 12.3467 15.2001 15.8401 15.3201C15.9467 15.3067 16.0534 15.3067 16.1334 15.3201C16.1601 15.3201 16.1734 15.3201 16.2001 15.3201C16.2134 15.3201 16.2134 15.3201 16.2267 15.3201C19.6401 15.2001 22.3201 12.4267 22.3334 9.00008C22.3334 5.50675 19.4934 2.66675 16.0001 2.66675Z" fill="#4169E1"/>
<path d="M22.7733 18.8666C19.0533 16.3866 12.9866 16.3866 9.23995 18.8666C7.54661 19.9999 6.61328 21.5333 6.61328 23.1733C6.61328 24.8133 7.54661 26.3333 9.22661 27.4533C11.0933 28.7066 13.5466 29.3333 15.9999 29.3333C18.4533 29.3333 20.9066 28.7066 22.7733 27.4533C24.4533 26.3199 25.3866 24.7999 25.3866 23.1466C25.3733 21.5066 24.4533 19.9866 22.7733 18.8666Z" fill="#4169E1"/>
</svg>
