<svg width="20" height="21" viewBox="0 0 20 21" fill="none" xmlns="http://www.w3.org/2000/svg">
<path d="M18.2087 8.71178C17.052 8.77719 16.1253 9.74431 16.1253 10.9166C16.1253 12.0887 17.0517 13.0557 18.2082 13.1214C18.1955 14.853 17.9095 15.7447 17.4106 16.2435C16.9002 16.7539 15.9787 17.0416 14.167 17.0416H9.70866V15.9166C9.70866 15.1607 9.08954 14.5416 8.33366 14.5416C7.57778 14.5416 6.95866 15.1607 6.95866 15.9166V17.0416H5.83366C4.02199 17.0416 3.10043 16.7539 2.59003 16.2435C2.07963 15.7331 1.79199 14.8116 1.79199 12.9999V12.7047C2.9487 12.6393 3.87533 11.6722 3.87533 10.4999C3.87533 9.32764 2.9487 8.36052 1.79199 8.29511V7.99992C1.79199 6.18825 2.07963 5.26669 2.59003 4.75629C3.10043 4.24589 4.02199 3.95825 5.83366 3.95825H6.95866V5.08325C6.95866 5.83913 7.57778 6.45825 8.33366 6.45825C9.08954 6.45825 9.70866 5.83913 9.70866 5.08325V3.95825H14.167C15.9787 3.95825 16.9002 4.24589 17.4106 4.75629C17.921 5.26669 18.2087 6.18825 18.2087 7.99992V8.71178ZM8.33366 13.6833C9.08954 13.6833 9.70866 13.0641 9.70866 12.3083V8.69159C9.70866 7.9357 9.08954 7.31659 8.33366 7.31659C7.57778 7.31659 6.95866 7.9357 6.95866 8.69159V12.3083C6.95866 13.0641 7.57778 13.6833 8.33366 13.6833Z" fill="#4169E1" stroke="#4169E1" stroke-width="1.5"/>
</svg>
