<svg width="16" height="14" viewBox="0 0 16 14" fill="none" xmlns="http://www.w3.org/2000/svg">
<path d="M15.9968 2.26881C15.397 2.52996 14.7637 2.69319 14.0972 2.79112C14.7637 2.39939 15.297 1.77914 15.5303 1.02832C14.8971 1.38741 14.1972 1.64856 13.4307 1.81178C12.8308 1.19154 11.9643 0.799805 11.0312 0.799805C9.23151 0.799805 7.76513 2.23616 7.76513 3.99897C7.76513 4.26012 7.79846 4.48863 7.86511 4.71714C5.16565 4.58657 2.73279 3.31343 1.09978 1.35476C0.833169 1.84443 0.666535 2.36674 0.666535 2.95434C0.666535 4.06425 1.23309 5.04359 2.13291 5.63119C1.59968 5.59855 1.09978 5.46797 0.633208 5.23946V5.2721C0.633208 6.83904 1.76632 8.14482 3.26602 8.43862C2.99941 8.50391 2.69947 8.53655 2.39953 8.53655C2.19957 8.53655 1.96628 8.50391 1.76632 8.47126C2.19957 9.7444 3.39933 10.6911 4.83238 10.6911C3.69927 11.5398 2.29955 12.0622 0.766515 12.0622C0.499901 12.0622 0.233287 12.0622 0 12.0295C1.46638 12.9436 3.16604 13.4659 5.03234 13.4659C11.0645 13.4659 14.3638 8.5692 14.3638 4.32541C14.3638 4.19483 14.3638 4.03161 14.3638 3.90103C14.997 3.47665 15.5636 2.9217 15.9968 2.26881Z" fill="#1D224E"/>
</svg>
