<svg width="36" height="50" viewBox="0 0 36 50" fill="none" xmlns="http://www.w3.org/2000/svg">
<path fill-rule="evenodd" clip-rule="evenodd" d="M18.4238 35.8586C18.4238 35.4148 18.7764 35.0509 19.2182 35.009C19.725 34.961 20.1738 35.35 20.1738 35.8591V47.368C20.1738 48.3369 20.9593 49.1223 21.9282 49.1223C22.8971 49.1223 23.6826 48.3369 23.6826 47.368V34.5583C23.6826 34.2128 23.8995 33.9048 24.2189 33.7733C24.7893 33.5385 25.4403 33.943 25.4403 34.5598V42.1062C25.4403 43.0752 26.2257 43.8606 27.1946 43.8606C28.1635 43.8606 28.949 43.0751 28.949 42.1062V31.2402C28.949 31.0084 29.0511 30.789 29.2239 30.6346C29.7691 30.1478 30.7022 30.5149 30.7022 31.2458V48.2456C30.7022 49.2145 31.4877 49.9999 32.4566 49.9999C33.4255 49.9999 34.2109 49.2145 34.2109 48.2456V25.5145C34.2109 23.8721 34.5291 22.2502 34.8164 20.6332C34.9945 19.6303 35.0875 18.598 35.0875 17.544C35.0875 7.85469 27.2329 0 17.5437 0C7.8546 0 0 7.85469 0 17.544C0 20.9762 0.985614 24.1783 2.68925 26.8826C3.6625 28.4275 4.38574 30.1559 4.38574 31.9818V37.72C4.38574 38.6889 5.1712 39.4744 6.14011 39.4744C7.10902 39.4744 7.89448 38.6889 7.89448 37.72V33.7214C7.89448 33.0684 8.62539 32.6693 9.1996 32.9803C9.47164 33.1277 9.64767 33.4099 9.64767 33.7193V47.3678C9.64767 48.3368 10.4331 49.1222 11.402 49.1222C12.371 49.1222 13.1564 48.3367 13.1564 47.3678V35.6116C13.1564 35.0662 13.668 34.6671 14.2035 34.7703C14.6091 34.8485 14.915 35.1978 14.915 35.6109V36.8421C14.915 37.811 15.7005 38.5965 16.6694 38.5965C17.6383 38.5965 18.4238 37.811 18.4238 36.8421V35.8586Z" fill="#3957D7"/>
</svg>
