<svg width="20" height="20" viewBox="0 0 20 20" fill="none" xmlns="http://www.w3.org/2000/svg">
<path d="M16.812 17.5834H3.18762C3.40067 14.8145 6.24705 12.4167 9.9998 12.4167C13.7526 12.4167 16.5989 14.8145 16.812 17.5834Z" fill="#667185" stroke="#667185" stroke-width="1.5"/>
<path d="M7.86507 3.17155L7.86508 3.17157L7.86902 3.1684C8.45847 2.69548 9.19441 2.41675 9.99967 2.41675C11.0358 2.41675 11.9647 2.87886 12.5915 3.60806C12.0084 3.13253 11.1545 3.1551 10.5918 3.67324C10.5917 3.6733 10.5916 3.67336 10.5916 3.67342L9.44607 4.72774C8.84374 4.14358 7.88985 4.14925 7.29435 4.74475C6.69355 5.34555 6.69312 6.31114 7.29306 6.91246C7.29349 6.91289 7.29392 6.91332 7.29435 6.91374L8.3172 7.94493L8.3172 7.94493L8.31934 7.94708C8.61919 8.24692 9.01415 8.39175 9.39967 8.39175C9.76383 8.39175 10.1433 8.26444 10.444 7.98238L12.6661 5.93507C12.6661 5.93505 12.6662 5.93502 12.6662 5.93499C13.1052 5.53063 13.2463 4.93727 13.1041 4.40541C13.3045 4.84001 13.4163 5.32375 13.4163 5.83341C13.4163 6.47659 13.2389 7.07445 12.927 7.58296L12.9219 7.59135L12.9169 7.59987C12.7452 7.89707 12.5187 8.16437 12.2569 8.38588L12.2485 8.39297L12.2403 8.40031C11.6431 8.93642 10.8627 9.25008 9.99967 9.25008C8.75092 9.25008 7.67393 8.58307 7.08642 7.59249L7.08174 7.58459L7.07686 7.57682C6.76025 7.07159 6.58301 6.47635 6.58301 5.83341C6.58301 4.75278 7.08111 3.79191 7.86507 3.17155Z" fill="#667185" stroke="#667185" stroke-width="1.5"/>
</svg>
