<svg width="28" height="24" viewBox="0 0 28 24" fill="none" xmlns="http://www.w3.org/2000/svg">
<path d="M28.3749 3.21521V20.7845C28.3749 22.1073 27.3018 23.1804 25.9791 23.1804H2.02081C0.698125 23.1804 -0.375 22.1073 -0.375 20.7845V3.21521C-0.375 1.89246 0.698125 0.819336 2.02081 0.819336H25.9791C27.3018 0.819336 28.3749 1.89252 28.3749 3.21521Z" fill="#0353A5"/>
<path d="M24.3616 8.00684H22.8093C22.3302 8.00684 21.9657 8.14665 21.7611 8.65071L18.7812 15.7632H20.8876C20.8876 15.7632 21.2321 14.805 21.3069 14.6003H23.8824C23.9422 14.8748 24.1219 15.7632 24.1219 15.7632H25.9788L24.3616 8.00684ZM21.8859 13.0131C22.0507 12.569 22.6845 10.842 22.6845 10.842C22.6745 10.8569 22.8493 10.3877 22.9491 10.0982L23.0887 10.7671C23.0887 10.7671 23.4681 12.6238 23.553 13.0131H21.8859V13.0131Z" fill="white"/>
<path d="M8.27041 8.00684L6.30884 13.2976L6.09416 12.2245L5.39534 8.66065C5.28053 8.16652 4.92616 8.02677 4.48691 8.00684H1.25766L1.22266 8.16159C2.01128 8.36127 2.71509 8.65077 3.32897 9.01509L5.11591 15.7534H7.23716L10.3916 8.0069H8.27041V8.00684Z" fill="white"/>
<path d="M11.2001 8.00684L9.94727 15.7633H11.9489L13.2066 8.00684H11.2001Z" fill="white"/>
<path d="M17.2491 11.1163C16.5454 10.7619 16.1161 10.5223 16.1161 10.1579C16.126 9.8285 16.4804 9.48907 17.2691 9.48907C17.9229 9.47407 18.4021 9.62888 18.7614 9.7835L18.9412 9.86838L19.2157 8.19132C18.8213 8.0365 18.1925 7.86182 17.4188 7.86182C15.4373 7.86182 14.0447 8.92007 14.0347 10.4274C14.0197 11.5404 15.0329 12.1594 15.7916 12.5337C16.5653 12.9129 16.8298 13.1626 16.8298 13.497C16.8199 14.0162 16.2009 14.2558 15.6269 14.2558C14.8283 14.2558 14.399 14.1309 13.7453 13.8416L13.4807 13.7166L13.2012 15.4586C13.6702 15.6733 14.5388 15.8629 15.4372 15.873C17.5435 15.8779 18.9162 14.8346 18.9311 13.2275C18.9412 12.3441 18.4022 11.6703 17.2491 11.1163Z" fill="white"/>
</svg>
